<svg width="32" height="32" viewBox="0 0 32 32" fill="none" xmlns="http://www.w3.org/2000/svg">
<path d="M16 29.3337C15.6889 29.3337 15.4222 29.2448 15.2 29.067C14.9778 28.8892 14.8111 28.6559 14.7 28.367C14.2778 27.1225 13.7445 25.9559 13.1 24.867C12.4778 23.7781 11.6 22.5003 10.4667 21.0337C9.33335 19.567 8.41113 18.167 7.70002 16.8337C7.01113 15.5003 6.66669 13.8892 6.66669 12.0003C6.66669 9.40032 7.56669 7.20032 9.36669 5.40032C11.1889 3.5781 13.4 2.66699 16 2.66699C18.6 2.66699 20.8 3.5781 22.6 5.40032C24.4222 7.20032 25.3334 9.40032 25.3334 12.0003C25.3334 14.0225 24.9445 15.7114 24.1667 17.067C23.4111 18.4003 22.5334 19.7225 21.5334 21.0337C20.3334 22.6337 19.4222 23.967 18.8 25.0337C18.2 26.0781 17.7 27.1892 17.3 28.367C17.1889 28.6781 17.0111 28.9225 16.7667 29.1003C16.5445 29.2559 16.2889 29.3337 16 29.3337ZM16 15.3337C16.9334 15.3337 17.7222 15.0114 18.3667 14.367C19.0111 13.7225 19.3334 12.9337 19.3334 12.0003C19.3334 11.067 19.0111 10.2781 18.3667 9.63366C17.7222 8.98921 16.9334 8.66699 16 8.66699C15.0667 8.66699 14.2778 8.98921 13.6334 9.63366C12.9889 10.2781 12.6667 11.067 12.6667 12.0003C12.6667 12.9337 12.9889 13.7225 13.6334 14.367C14.2778 15.0114 15.0667 15.3337 16 15.3337Z" fill="#F6F8F5"/>
</svg>
