<svg width="1353" height="650" viewBox="0 0 1353 650" fill="none" xmlns="http://www.w3.org/2000/svg">
<path d="M333.516 486.309L332.795 507.937H275.889V505.293L318.869 442.814H297.499C293.177 442.814 290.055 443.054 288.855 443.775C287.414 444.256 286.214 445.698 285.253 447.38C284.053 450.023 283.332 453.147 283.092 456.992H280.211L280.691 437.527H334.716V440.411L291.496 502.89H315.027C319.829 502.89 323.191 502.41 324.872 501.448C326.552 500.487 327.993 499.045 328.953 496.642C329.674 494.96 330.394 491.596 330.874 486.309H333.516ZM397.385 486.309L396.665 507.937H339.758V505.293L382.739 442.814H361.369C356.806 442.814 353.925 443.054 352.484 443.775C351.044 444.256 350.083 445.698 349.123 447.38C347.922 450.023 347.202 453.147 346.962 456.992H344.081L344.321 437.527H398.346V440.411L355.366 502.89H378.657C383.699 502.89 386.82 502.41 388.741 501.448C390.422 500.487 391.863 499.045 392.823 496.642C393.544 494.96 394.264 491.596 394.744 486.309H397.385Z" fill="#D4D9DE" fill-opacity="0.03"/>
<path d="M173.121 512.743C174.081 374.808 230.267 249.85 320.79 159.255C372.654 107.59 435.323 66.9781 505.436 41.5059C502.795 45.591 500.634 50.1568 499.673 55.2032C494.631 54.242 489.588 54.242 484.786 54.9629C470.86 56.8853 450.69 67.2184 442.046 78.2724L426.679 97.9774C392.583 118.403 361.128 143.155 333.035 171.27C245.635 258.741 191.129 379.374 190.169 512.743H173.121ZM928.513 77.7918C939.318 84.0397 949.883 90.5279 960.208 97.4968L943.64 106.388C943.16 96.0549 939.558 86.2025 930.674 80.1949C929.954 79.7142 929.474 79.2336 928.753 78.9933L928.513 77.7918ZM964.29 100.38C989.502 117.923 1013.27 137.628 1034.88 159.255C1125.41 249.85 1181.59 374.808 1182.55 512.743H1165.5C1164.54 379.374 1110.28 258.741 1022.64 171.27C1004.39 153.007 984.94 136.426 964.05 121.047L964.29 100.38Z" fill="#FFEBD9" fill-opacity="0.04"/>
<path d="M211.779 512.743C212.739 385.381 264.603 270.276 348.162 186.65C363.049 171.751 378.657 158.053 395.224 145.558C390.182 159.976 392.343 177.278 395.705 191.696L396.905 197.223L393.784 200.347C388.261 205.393 382.739 210.44 377.456 215.726C301.341 291.903 254.039 396.916 253.078 512.743H211.779ZM961.649 146.519C977.736 158.774 993.103 172.231 1007.51 186.65C1091.07 270.276 1142.93 385.381 1143.89 512.743H1102.59C1101.63 396.916 1054.33 291.903 978.216 215.726C974.134 211.641 969.812 207.556 965.49 203.711C965.49 200.587 965.01 197.463 964.29 194.58C961.889 184.487 956.846 176.557 949.643 170.79C956.126 164.061 959.728 155.41 961.649 146.519Z" fill="#D4D9DE" fill-opacity="0.03"/>
<path d="M89.0815 599.493C89.3217 597.57 89.8019 594.686 89.8019 590.842C89.8019 572.098 80.9177 543.021 47.7823 543.021C18.0084 543.021 0 567.051 0 597.81C0 628.569 18.7287 648.995 49.9433 648.995C66.2709 648.995 77.3161 645.631 83.7991 642.747L80.6776 629.531C73.7144 632.414 65.7907 634.817 52.5845 634.817C34.0959 634.817 18.0084 624.484 17.7683 599.493H89.0815ZM17.7683 586.276C19.4491 573.299 27.6129 556.238 46.3416 556.238C66.9912 556.238 72.0336 574.501 71.7935 586.276H17.7683ZM197.852 545.184H179.364V607.663C179.364 611.027 178.643 614.391 177.683 617.035C174.321 625.445 165.677 633.856 153.191 633.856C136.384 633.856 130.621 620.88 130.621 601.655V545.184H112.132V604.779C112.132 640.585 131.101 649.236 147.189 649.236C165.197 649.236 176.002 638.662 180.804 630.492H181.044L182.245 647.073H198.573C197.852 638.902 197.852 629.771 197.852 619.197V545.184ZM228.346 647.073H246.595V592.764C246.595 589.64 247.075 586.756 247.555 584.113C249.957 570.175 259.321 560.323 272.287 560.323C274.928 560.323 276.849 560.563 278.53 561.044V543.502C276.849 543.021 275.408 543.021 273.488 543.021C261.002 543.021 249.957 551.432 245.154 565.129H244.434L243.714 545.184H227.626C228.106 554.796 228.346 564.889 228.346 576.904V647.073ZM338.078 543.021C309.985 543.021 287.654 562.966 287.654 596.849C287.654 629.05 308.784 649.236 336.397 649.236C360.888 649.236 387.061 632.895 387.061 595.167C387.061 564.168 367.371 543.021 338.078 543.021ZM337.597 556.718C359.448 556.718 368.092 578.586 368.092 595.888C368.092 618.717 354.886 635.538 337.357 635.538C319.109 635.538 306.383 618.717 306.383 596.369C306.383 576.904 315.747 556.718 337.597 556.718ZM524.164 497.604V558.401H523.924C519.122 550.23 508.797 543.021 493.19 543.021C468.458 543.021 447.329 563.687 447.569 597.57C447.569 628.569 466.538 649.236 491.029 649.236C507.597 649.236 520.083 640.585 525.605 629.29H526.085L527.046 647.073H543.614C542.893 640.104 542.653 629.771 542.653 620.639V497.604H524.164ZM524.164 604.299C524.164 607.182 523.924 609.826 523.444 612.229C520.083 626.166 508.797 634.337 496.311 634.337C476.382 634.337 466.297 617.275 466.297 596.849C466.297 574.261 477.583 557.439 496.792 557.439C510.478 557.439 520.563 567.051 523.444 578.826C523.924 581.229 524.164 584.353 524.164 586.756V604.299ZM658.387 545.184H639.898V607.663C639.898 611.027 639.418 614.391 638.218 617.035C634.856 625.445 626.452 633.856 613.966 633.856C597.158 633.856 591.156 620.88 591.156 601.655V545.184H572.667V604.779C572.667 640.585 591.876 649.236 607.964 649.236C625.972 649.236 636.537 638.662 641.579 630.492H641.819L643.02 647.073H659.347C658.627 638.902 658.387 629.771 658.387 619.197V545.184ZM732.342 543.021C704.008 543.021 681.918 562.966 681.918 596.849C681.918 629.05 703.048 649.236 730.661 649.236C755.152 649.236 781.324 632.895 781.324 595.167C781.324 564.168 761.395 543.021 732.342 543.021ZM731.861 556.718C753.711 556.718 762.356 578.586 762.356 595.888C762.356 618.717 749.149 635.538 731.381 635.538C713.373 635.538 700.407 618.717 700.407 596.369C700.407 576.904 710.011 556.718 731.861 556.718ZM867.284 497.604H849.036V647.073H867.284V608.624L876.889 598.291L911.945 647.073H934.276L889.615 586.997L928.993 545.184H906.663L876.889 580.268C873.767 583.873 870.406 588.439 867.765 591.803H867.284V497.604ZM1024.56 647.073C1023.36 640.104 1022.88 631.453 1022.88 622.562V584.594C1022.88 564.168 1015.19 543.021 984.219 543.021C971.253 543.021 959.247 546.385 950.843 551.912L954.925 564.168C962.129 559.602 971.973 556.478 981.338 556.478C1002.23 556.478 1004.63 571.617 1004.63 580.028V582.191C965.25 581.95 943.4 595.407 943.4 620.159C943.4 634.817 953.965 649.236 974.615 649.236C989.021 649.236 999.826 642.267 1005.59 634.096H1006.31L1007.75 647.073H1024.56ZM1004.87 612.709C1004.87 614.632 1004.63 616.794 1003.91 618.717C1001.03 627.128 992.623 635.538 979.417 635.538C969.812 635.538 961.889 630.011 961.889 617.996C961.889 598.291 984.699 594.686 1004.87 595.167V612.709ZM1052.65 647.073H1071.14V497.604H1052.65V647.073ZM1183.99 599.493C1184.23 597.57 1184.71 594.686 1184.71 590.842C1184.71 572.098 1175.83 543.021 1142.69 543.021C1112.92 543.021 1094.91 567.051 1094.91 597.81C1094.91 628.569 1113.64 648.995 1144.85 648.995C1161.18 648.995 1172.23 645.631 1178.71 642.747L1175.59 629.531C1168.62 632.414 1160.7 634.817 1147.5 634.817C1129.01 634.817 1112.92 624.484 1112.44 599.493H1183.99ZM1112.68 586.276C1114.12 573.299 1122.52 556.238 1141.01 556.238C1161.9 556.238 1166.94 574.501 1166.7 586.276H1112.68ZM1207.52 647.073H1225.53V585.555C1225.53 582.431 1226.01 579.307 1226.97 576.664C1230.09 567.292 1238.5 558.16 1250.02 558.16C1263.95 558.16 1271.15 569.935 1271.15 586.035V647.073H1289.16V584.113C1289.16 580.749 1289.88 577.385 1290.6 574.981C1293.96 565.85 1302.13 558.16 1312.45 558.16C1327.58 558.16 1334.54 569.935 1334.54 589.4V647.073H1352.79V586.997C1352.79 551.672 1332.62 543.021 1319.18 543.021C1309.57 543.021 1302.85 545.424 1296.84 549.99C1292.52 553.114 1288.68 557.68 1285.56 563.207H1285.08C1280.52 551.432 1270.19 543.021 1256.27 543.021C1239.46 543.021 1230.09 551.912 1224.33 561.524H1223.61L1222.89 545.184H1206.56C1207.28 553.594 1207.52 562.245 1207.52 572.819V647.073Z" fill="#D4D9DE" fill-opacity="0.03"/>
<path fill-rule="evenodd" clip-rule="evenodd" d="M675.435 304.639H675.675L675.435 306.081C655.986 289.26 630.774 275.803 617.808 266.431C613.006 264.028 613.006 263.066 608.684 260.183V260.423L592.116 248.648L591.876 247.927C584.673 243.121 576.029 235.672 569.786 229.664C519.122 181.123 532.328 178.239 520.563 163.1L523.204 178.96C525.365 181.363 534.009 202.51 546.735 220.052C556.099 233.269 578.43 258.741 591.396 268.834C570.986 270.035 547.936 271.717 530.888 284.694C519.602 293.345 513.84 299.833 508.077 313.29C505.196 320.499 503.515 327.468 503.275 336.119C510.958 319.298 510.718 313.53 525.125 299.112C531.608 292.864 539.772 289.98 548.176 287.097C607.483 268.113 677.116 320.259 678.076 373.847C678.797 418.784 668.952 469.247 645.901 507.216L638.218 518.27H685.28V532.688C702.808 517.549 746.268 511.06 769.319 525.238C773.401 523.316 776.762 521.153 779.163 518.75C776.042 512.983 774.841 513.223 770.519 508.417C751.791 486.069 739.545 454.349 731.861 425.512C728.26 411.334 716.494 357.746 712.172 326.987C708.811 267.872 711.932 199.386 792.61 183.766C833.669 175.596 866.804 213.083 868.245 248.888C870.166 229.904 859.601 205.153 845.915 191.696C826.466 172.231 817.822 175.355 802.454 171.27C799.333 170.309 800.293 170.79 798.613 169.588C807.737 165.263 824.064 147.24 831.508 138.589C838.231 130.899 844.714 118.644 848.316 108.31C852.398 96.0549 849.756 97.4967 848.316 96.2952L847.355 101.342C839.912 127.294 812.539 148.682 790.929 161.658L719.135 204.913C720.336 176.317 718.415 152.526 712.172 126.093C704.008 90.7682 696.565 85.2412 688.401 62.4123C686.96 61.6914 686.96 61.4511 685.04 58.5674C683.119 55.4435 683.119 55.6838 681.678 53.0404C681.678 56.8853 692.963 85.2412 695.124 94.8534C698.966 109.993 701.127 126.814 701.847 142.914C692.483 131.139 679.277 115.039 655.986 113.837C633.175 112.876 612.766 126.093 605.322 139.31C609.164 137.387 606.283 139.069 608.924 137.147C619.729 129.457 630.534 118.163 654.305 121.527C671.593 124.171 684.079 137.868 690.562 150.844C707.85 185.929 677.116 258.981 675.435 304.639ZM864.163 319.298C882.412 316.654 876.169 322.181 886.013 319.298C900.9 314.732 911.465 278.926 890.816 274.12C880.011 271.477 876.649 276.764 870.886 276.523C867.765 276.523 865.364 274.841 861.282 274.12C829.107 269.555 838.711 322.902 864.163 319.298ZM786.607 47.7537C783.966 49.9165 787.567 48.715 783.966 48.9553C780.604 48.9553 764.757 41.0252 756.593 52.5598C748.189 64.575 759.474 90.5279 772.921 91.9697C783.245 93.1712 777.963 88.3652 787.567 91.2488C800.053 94.6131 802.935 90.7682 810.378 81.3963C815.42 74.9081 818.542 59.2883 811.579 51.5986C804.135 42.9476 796.692 47.5134 786.607 47.7537ZM570.746 196.502C571.947 204.432 576.029 211.401 580.591 215.967C590.435 226.06 593.317 218.61 601.24 219.091C611.325 219.812 611.805 226.06 622.61 215.967C627.413 211.161 630.534 205.393 631.975 197.223C633.896 186.89 630.294 180.161 624.051 176.797C613.246 171.51 607.243 178.239 601.481 178.239C601.481 178.239 565.944 165.743 570.746 196.502ZM489.829 408.21C496.792 411.334 499.673 407.489 505.196 407.489C510.718 407.489 509.758 410.854 519.602 408.931C541.453 397.396 542.653 365.196 522.004 363.273C513.119 362.312 510.958 366.157 506.156 366.397C503.755 366.638 485.266 357.987 477.823 369.521C470.86 380.575 478.303 402.683 489.829 408.21ZM909.544 135.945C917.468 130.178 926.112 122.008 925.632 107.59C925.392 88.8458 911.465 93.1712 896.818 92.9309C893.937 98.6982 883.372 86.4427 870.886 93.8922C856.239 102.783 866.084 131.38 880.011 135.705C887.694 138.348 886.974 135.945 893.217 134.984C899.219 133.783 900.42 136.666 909.544 135.945ZM625.012 58.8077C606.523 64.0944 612.286 86.683 622.61 97.2564C631.014 105.907 632.455 103.504 643.02 101.342C650.463 99.8998 654.545 107.109 664.63 99.1789C673.274 92.21 681.198 69.1408 668.472 60.9705C660.068 55.4435 654.305 58.8077 646.622 60.9705C639.899 62.6526 636.297 55.4435 625.012 58.8077ZM481.425 234.951C489.348 233.99 484.786 231.827 492.95 233.509C505.196 236.152 513.119 232.548 518.402 215.967C524.885 195.301 511.679 187.371 492.95 192.177C482.865 194.82 483.345 188.091 471.1 190.254C447.089 194.58 459.334 237.834 481.425 234.951ZM869.446 207.316C872.087 239.036 900.18 227.982 926.112 237.834C922.03 224.858 915.067 211.401 906.903 205.393C894.177 195.781 879.29 197.463 869.446 207.316ZM451.651 123.209C452.851 124.411 452.131 123.93 454.052 125.853L464.137 134.504C468.218 139.069 470.379 142.674 474.221 147.72C483.826 160.216 487.667 161.177 505.676 157.813C503.275 149.643 493.91 141.472 487.908 135.465C483.345 130.659 471.34 122.248 463.656 122.729C474.461 122.248 483.586 126.333 490.789 131.38C507.357 142.914 502.795 144.116 509.758 149.402C513.119 118.884 474.701 108.791 451.651 123.209ZM642.54 418.543C632.935 399.319 637.017 382.978 608.684 381.056C610.125 388.986 614.927 398.598 618.288 405.327C624.051 416.381 629.814 420.706 631.735 424.311C620.449 418.543 613.486 408.691 607.964 397.156C603.401 387.544 605.562 389.707 601.721 387.304C598.119 421.908 620.69 431.039 651.664 433.442C649.263 428.396 645.661 425.031 642.54 418.543ZM456.213 89.3264C473.261 91.0085 477.343 97.4967 489.829 102.783C501.594 107.83 521.523 101.342 516.961 88.3652C513.84 79.2336 501.114 70.5826 487.187 72.5051C478.303 73.9469 461.976 81.8769 456.213 89.3264ZM779.884 399.559C778.203 397.877 776.282 396.435 774.361 394.032C771.24 390.187 769.079 385.381 765.957 380.815C753.231 362.312 725.859 365.436 736.424 389.947C744.347 408.21 771 410.133 783.485 405.327C783.726 404.365 785.406 405.086 779.884 399.559ZM567.385 300.794C557.54 312.088 555.379 328.669 554.419 345.491C547.696 331.313 553.938 311.127 560.181 299.593C550.337 302.957 539.532 314.491 542.413 330.111C544.334 341.646 555.859 354.382 560.662 360.39C562.823 351.018 564.023 344.77 568.585 337.08C575.308 325.786 585.633 309.685 567.385 300.794ZM589.955 345.01C589.475 352.46 589.955 363.514 593.557 369.041C601.721 354.863 603.161 357.506 614.687 348.374C623.091 341.646 627.413 332.755 621.89 319.538C606.283 309.445 590.916 328.429 589.955 345.01ZM577.469 59.7689C607.964 60.9705 605.803 43.6686 610.605 31.1727C613.006 25.6457 616.368 22.5218 618.048 17.956C590.435 23.483 564.263 29.7309 577.469 59.7689ZM413.233 187.851C420.196 180.642 418.035 177.999 435.323 165.503C444.447 158.774 445.168 147.961 440.365 135.465C408.19 134.023 406.75 160.216 413.233 187.851ZM548.656 411.334C558.741 410.133 567.625 408.45 574.348 402.683C582.752 395.474 582.512 388.746 583.472 375.529C571.226 366.397 558.501 375.048 553.938 384.18C539.772 413.257 545.534 399.079 538.331 411.815L548.656 411.334ZM766.438 210.44C768.839 223.416 774.601 229.183 788.288 230.866C804.135 232.548 806.776 232.548 820.463 238.075C818.542 232.067 816.621 226.3 813.74 220.773C802.454 198.905 780.124 192.898 769.799 204.192C789.488 208.758 799.813 210.68 809.658 223.416C795.251 215.246 786.367 211.161 766.438 210.44ZM405.549 214.044C384.179 235.672 392.823 268.113 410.592 269.314C420.676 270.035 425.478 252.733 419.476 241.679C416.834 237.114 413.953 233.509 411.312 227.982C408.911 223.656 407.47 217.168 405.549 214.044ZM777.243 297.67C775.562 312.569 773.641 319.057 783.966 326.987C791.169 332.514 796.932 337.561 801.494 346.933C807.737 326.987 810.378 297.19 789.969 293.104C781.805 293.104 782.045 293.825 777.243 297.67ZM782.525 352.219C768.839 339.003 774.601 346.452 761.395 329.15C756.593 322.902 750.83 317.375 740.746 318.577L733.782 320.98C741.226 337.561 758.514 344.77 764.997 350.777C748.909 348.134 737.624 334.677 729.46 326.026C728.26 358.707 769.559 359.428 782.525 352.219ZM712.412 89.3264C724.898 103.024 713.853 88.1249 730.661 110.713C741.946 125.612 756.353 119.845 758.754 116.961C766.438 106.628 752.031 93.1712 747.469 90.7682C737.864 85.9621 722.977 86.4427 712.412 89.3264ZM558.741 186.409C573.147 166.464 558.26 160.697 544.814 137.868C544.574 137.387 543.854 136.186 543.614 135.705L541.933 133.783C538.571 143.155 532.328 155.17 535.21 167.906C537.371 177.999 546.255 186.409 558.741 186.409ZM430.761 326.747C429.32 325.786 428.36 325.305 426.919 324.344C420.436 319.778 410.592 310.166 408.19 301.996L412.512 306.081C421.397 314.732 429.56 321.941 441.326 325.545C443.727 299.833 430.041 303.678 413.713 292.383C408.431 288.779 407.47 285.895 402.188 283.012C402.188 295.988 402.428 310.166 408.671 319.538C412.512 325.305 424.038 334.677 435.563 330.352L430.761 326.747ZM649.743 18.6769C661.989 23.483 667.271 28.0488 674.715 34.537C686 44.3895 690.562 42.7073 704.008 37.4207C696.085 28.0488 682.638 19.3978 665.59 16.2739C685.52 13.8708 695.124 24.2039 707.13 31.1727C704.249 4.73927 666.551 4.97957 649.743 18.6769ZM783.485 380.815C789.969 384.901 789.008 386.823 798.372 388.746C819.262 393.311 834.149 373.126 836.07 363.754C813.499 370.242 787.808 352.7 783.485 380.815ZM704.008 62.4123L703.048 71.0633C708.571 62.6526 728.26 43.4283 743.867 44.8701C734.743 43.9089 708.571 67.699 707.61 77.5515C724.178 80.1948 728.26 75.3887 735.223 65.296C744.827 51.3583 746.268 53.0404 754.432 43.9089L744.347 41.0252C717.935 38.8625 713.853 45.3507 704.008 62.4123ZM517.201 127.054C539.772 121.287 558.02 129.698 565.464 113.597C568.105 108.31 567.145 112.636 567.385 105.667C546.255 87.1636 523.684 105.186 517.201 127.054ZM741.466 180.161C765.957 165.503 752.991 136.907 734.983 126.814C734.022 140.992 732.582 143.875 729.941 156.612C727.059 169.588 732.582 177.518 741.466 180.161ZM576.989 149.883C586.354 132.101 619.729 123.209 607.003 103.504C595.478 110.954 580.831 122.969 575.789 138.829C576.989 118.884 595.478 107.83 600.52 101.582C588.274 103.985 578.67 109.031 573.868 117.682C569.786 125.132 569.786 134.023 572.667 142.674L576.989 149.883ZM424.998 280.368C431.721 278.686 437.724 276.043 444.928 274.841C455.012 273.399 453.572 277.244 462.456 270.756C469.659 264.989 478.303 247.447 455.252 247.447C438.204 247.447 428.36 265.469 424.998 280.368ZM626.452 252.493C639.178 269.795 631.735 270.756 655.986 274.12L663.429 272.198C665.11 270.035 665.35 267.632 665.35 264.989C665.11 233.269 636.777 232.788 611.565 235.912C616.127 241.439 621.65 247.206 626.452 252.493ZM460.295 336.84C459.574 347.413 464.137 355.343 465.097 363.514C468.218 360.87 465.817 363.273 468.699 359.669L486.707 338.282C489.829 333.235 489.829 327.708 487.667 321.46C481.905 305.841 461.255 321.941 460.295 336.84ZM683.119 183.285C685.76 152.046 662.949 159.976 645.661 147.24C647.102 167.906 660.068 195.301 683.119 183.285ZM520.323 73.226C524.405 60.0093 529.687 49.6762 539.532 43.188C537.851 46.7925 539.292 44.1492 537.611 46.7925C536.89 47.994 535.93 49.4359 535.21 50.6374C530.407 58.0868 526.806 67.699 525.365 76.5903C538.091 75.8693 543.133 71.5439 546.255 60.2496C550.097 47.0328 552.738 43.188 556.58 33.3355C526.085 36.6997 509.278 56.8853 520.323 73.226ZM643.74 347.894C647.102 356.785 659.107 364.475 659.107 385.141C655.986 379.374 653.825 371.924 650.223 365.676C647.342 361.111 642.3 352.7 637.257 350.537C629.574 361.591 635.096 371.444 640.859 377.932C655.026 393.552 652.144 394.993 657.427 401.962C667.271 377.451 670.633 357.506 643.74 347.894ZM918.669 139.55C912.426 149.883 908.104 144.596 909.784 163.821C937.637 169.828 945.561 151.805 946.041 125.372C939.078 129.217 930.194 138.829 918.669 139.55ZM741.466 28.0488C751.791 30.6921 756.593 29.7309 764.036 25.4054C758.274 -2.22956 744.107 -3.67138 716.974 4.01835C723.938 8.10353 730.901 15.553 735.943 21.3203C740.025 25.886 740.746 25.4054 741.466 28.0488ZM677.836 226.3C677.356 212.122 673.994 208.037 662.709 203.471C650.223 198.665 648.302 196.983 638.218 191.215C639.418 206.355 641.339 224.858 657.427 230.866C662.709 232.788 668.712 233.749 673.274 230.385C659.828 224.858 650.704 218.61 644.941 207.075C653.585 212.602 660.068 221.974 677.836 226.3ZM770.039 155.891C769.799 140.751 771 129.217 778.923 119.845C774.601 136.666 774.361 139.31 775.802 157.573C797.652 149.883 786.127 131.139 790.209 107.59C766.197 116.24 753.231 143.635 770.039 155.891ZM436.524 238.315C445.168 235.912 429.56 237.114 426.679 206.114C430.281 211.401 431.001 216.688 434.843 223.176C438.685 229.183 440.846 231.827 445.168 236.152C458.614 216.688 438.925 206.355 430.281 187.13C422.117 196.262 410.351 227.742 436.524 238.315ZM873.768 145.077C837.03 130.899 824.545 155.41 829.107 164.542C833.669 174.154 849.997 167.425 854.319 162.859C857.92 159.255 858.641 156.852 862.963 153.007C866.324 150.123 870.646 147.961 873.768 145.077ZM434.123 349.816C419.476 371.203 445.168 390.428 463.896 392.11C452.131 372.885 465.097 352.219 438.925 346.692C440.606 363.033 443.487 371.203 450.69 382.978C438.685 374.327 439.165 365.436 434.123 349.816ZM733.782 253.454C737.144 254.656 735.463 253.454 738.344 255.377C741.706 258.26 748.669 259.222 752.511 256.578C758.514 255.136 761.635 251.291 766.678 247.927C770.519 245.524 776.282 244.323 780.124 241.679C733.302 217.409 720.816 244.803 733.782 253.454ZM922.51 178.239C928.993 186.409 943.16 196.262 943.16 213.083C939.798 200.107 926.832 187.371 917.468 181.844C907.623 198.905 925.152 202.75 943.4 225.339C950.363 212.843 952.764 182.564 922.51 178.239ZM823.344 89.3264C815.901 94.3728 798.613 107.349 804.375 122.488C807.497 130.178 813.499 130.659 820.223 125.853C826.225 121.527 829.347 117.202 829.347 106.148L829.107 85.4815L823.344 89.3264ZM466.778 281.81C459.574 291.182 454.292 290.461 444.687 297.19C465.097 303.437 491.269 317.135 504.475 294.546C505.436 290.942 506.396 287.097 505.676 284.694C505.436 283.012 505.676 282.05 503.755 280.609C501.354 278.686 484.066 265.71 466.778 281.81ZM865.604 191.215C882.172 193.138 892.736 184.006 897.299 171.51L896.818 153.968C891.536 155.891 890.816 158.294 885.533 161.418C869.446 170.549 854.078 171.751 860.081 188.091C871.366 183.766 882.892 176.797 891.056 168.386L892.977 166.704C887.934 178.72 875.929 184.487 865.604 191.215ZM847.115 77.7918C848.316 62.6526 846.155 53.2807 841.352 41.0252C850.717 52.5598 850.717 58.5674 852.398 76.1096C868.245 60.7302 849.276 34.7773 830.547 31.413C836.31 52.3195 826.946 71.5439 847.115 77.7918ZM833.429 253.695C836.55 258.26 837.03 256.818 839.191 262.105C841.593 259.942 839.912 263.066 842.793 258.26C842.073 239.757 862.722 233.509 845.675 214.044C843.033 216.928 841.112 221.734 839.672 226.06L835.11 238.315C834.869 238.075 834.389 239.036 834.149 239.517C834.389 228.222 836.07 222.936 839.672 213.564C815.661 223.416 833.429 253.695 833.429 253.695ZM596.438 85.4815C591.636 64.8153 574.828 71.5439 553.698 68.6602C558.501 81.6366 568.825 94.8534 583.712 92.9309C591.636 91.9697 593.317 89.807 596.438 85.4815ZM819.742 340.685C830.788 334.677 841.593 331.793 855.279 336.119C836.31 336.119 833.669 340.204 820.223 345.491C825.265 354.622 833.189 356.304 843.033 351.018C863.443 339.964 857.44 345.01 865.604 341.165C860.561 335.398 861.762 336.599 855.039 332.034C835.11 319.057 821.183 331.313 819.742 340.685ZM916.027 249.609C922.51 262.105 928.753 266.671 925.632 286.376C926.592 273.64 917.708 258.26 911.225 252.253C904.022 258.981 905.462 268.113 911.225 275.562L923.231 295.267C923.231 295.027 923.711 295.988 923.951 296.469C926.832 288.539 933.556 280.128 932.595 268.353C931.635 257.539 925.152 251.532 916.027 249.609ZM522.244 257.299C530.648 256.578 542.893 253.214 549.376 248.168C536.65 231.346 529.207 240.478 517.441 242.881C506.156 246.485 501.354 248.408 488.148 249.85C504.235 265.71 536.65 284.934 550.337 255.377C532.328 261.865 519.122 262.586 503.515 257.539L522.244 257.299ZM825.265 289.74C826.225 276.283 816.621 269.314 826.946 261.865C824.064 252.974 818.542 253.454 808.937 251.772C801.014 251.532 784.926 246.005 785.406 258.981C785.647 275.322 810.618 284.213 825.265 289.74ZM759.234 270.756C740.986 277.004 726.819 274.361 726.099 299.112C751.551 311.608 766.678 290.701 768.839 267.392L759.234 270.756ZM620.209 34.537C620.209 34.537 617.328 33.3355 623.091 39.3431C633.896 50.6374 629.574 54.242 642.54 53.2807C640.619 48.4746 641.339 49.6762 638.218 46.0716C637.257 45.1104 636.297 43.9089 635.336 42.7073C633.175 40.064 633.896 41.0252 632.455 38.6222C638.938 42.467 637.978 44.1492 643.5 47.994C642.54 37.9013 631.975 27.5682 620.209 34.537ZM873.047 268.834C885.293 270.035 882.892 265.469 891.056 255.857L896.338 248.888C882.892 246.245 873.047 249.129 872.327 263.307C877.369 259.222 876.889 257.299 883.132 253.454C879.77 259.702 876.409 260.663 873.047 268.834ZM601.721 165.263C605.562 161.898 608.444 158.294 612.766 155.41C609.164 162.619 607.483 159.736 603.161 169.828C614.447 171.751 615.167 164.301 623.811 153.488C625.732 151.085 625.012 152.526 625.252 151.085C612.286 144.356 603.882 153.247 601.721 165.263ZM785.166 36.2191C788.768 32.8549 792.13 29.01 796.452 26.1263C794.05 30.9324 795.011 29.2503 791.409 33.0952C788.288 36.4594 788.048 36.6997 786.367 41.0252C798.613 42.467 798.372 35.0176 804.615 27.5682C807.977 23.7233 808.697 24.6845 808.457 21.8009C794.771 15.7933 787.327 24.6845 785.166 36.2191ZM871.607 71.7842C876.409 74.9081 877.129 76.8306 880.251 80.9157C883.372 85.4815 884.573 87.8846 891.536 86.683C892.256 83.3188 891.296 82.8382 887.694 78.0321C885.053 74.4275 882.892 72.9857 880.011 70.3423C888.414 73.7066 886.734 74.4275 890.816 78.2724C892.977 80.6754 892.016 79.7142 894.177 80.6754C892.977 74.9081 889.855 70.102 886.734 68.1796C881.691 65.0556 875.929 66.4975 869.926 67.2184C870.166 67.699 870.646 69.6214 870.886 69.8617L871.607 71.7842ZM506.396 352.7C506.636 352.46 507.117 352.219 507.357 351.979C513.119 345.971 511.439 345.25 520.563 341.165C515.761 345.971 510.238 349.816 507.597 358.227C519.122 358.948 516.721 354.863 530.167 339.723C529.207 339.243 530.167 338.762 525.845 337.561C514.56 334.677 508.557 341.646 506.396 352.7ZM486.947 185.448C485.026 178.72 475.902 167.425 470.139 167.906C478.783 167.906 483.586 175.836 488.148 179.681C485.747 167.425 479.504 163.1 465.097 165.983C465.337 170.309 464.617 167.425 467.978 171.27C475.662 180.642 476.382 185.688 486.947 185.448ZM585.873 165.263C591.636 168.386 596.198 171.03 600.28 173.433C598.359 166.464 593.557 160.456 586.594 159.736L585.873 165.263ZM856.239 264.508C862.482 266.19 863.683 267.152 868.005 270.756C870.406 272.919 868.485 271.477 870.886 273.159C868.725 266.431 866.564 262.586 861.762 260.183C859.841 258.981 858.881 258.501 856.72 257.299L856.239 264.508ZM489.829 189.774C492.95 185.929 494.631 184.967 499.433 183.045C506.396 180.161 505.676 182.805 503.755 174.634C496.792 177.278 491.029 181.603 489.829 189.774ZM504.715 362.552C503.995 354.382 497.992 349.576 490.789 347.413L489.829 352.219C494.631 357.987 491.99 353.18 498.713 357.025C501.354 358.467 503.755 361.111 504.715 362.552ZM645.181 57.6062C651.904 49.1956 652.384 53.2807 660.068 48.4746L658.147 42.7073C652.865 45.591 646.382 47.994 645.181 57.6062ZM897.539 84.5203L896.338 90.5279C902.581 83.0785 905.703 85.7218 910.745 80.9157C908.824 75.1484 909.304 77.7918 908.104 76.3499C902.821 78.753 900.66 81.6366 897.539 84.5203ZM782.765 41.9864C780.364 36.6997 775.802 32.3743 770.519 30.2115L768.839 35.9788C769.559 36.2191 770.039 36.2191 770.279 36.6997C770.76 37.661 771.72 37.4207 772.44 37.661C775.562 38.8625 772.921 37.661 775.802 39.1028C780.124 41.0252 777.963 40.7849 782.765 41.9864Z" fill="#D4D9DE" fill-opacity="0.03"/>
</svg>
