<?xml version="1.0" encoding="UTF-8"?>
<!DOCTYPE svg PUBLIC "-//W3C//DTD SVG 1.1//EN" "http://www.w3.org/Graphics/SVG/1.1/DTD/svg11.dtd">
<!-- Creator: CorelDRAW X8 -->
<svg xmlns="http://www.w3.org/2000/svg" xml:space="preserve" width="5.71389in" height="4.31944in" version="1.1" style="shape-rendering:geometricPrecision; text-rendering:geometricPrecision; image-rendering:optimizeQuality; fill-rule:evenodd; clip-rule:evenodd"
viewBox="0 0 5714 4319"
 xmlns:xlink="http://www.w3.org/1999/xlink">
 <defs>
  <style type="text/css">
   <![CDATA[
    .fil2 {fill:#0E3A27}
    .fil1 {fill:#EF7F1A;fill-rule:nonzero}
    .fil0 {fill:#0E3A27;fill-rule:nonzero}
   ]]>
  </style>
 </defs>
 <g id="Layer_x0020_1">
  <metadata id="CorelCorpID_0Corel-Layer"/>
  <path class="fil0" d="M1431 2054l-3 90 -237 0 0 -11 179 -260 -89 0c-18,0 -31,1 -36,4 -6,2 -11,8 -15,15 -5,11 -8,24 -9,40l-12 0 2 -81 225 0 0 12 -180 260 98 0c20,0 34,-2 41,-6 7,-4 13,-10 17,-20 3,-7 6,-21 8,-43l11 0zm266 0l-3 90 -237 0 0 -11 179 -260 -89 0c-19,0 -31,1 -37,4 -6,2 -10,8 -14,15 -5,11 -8,24 -9,40l-12 0 1 -81 225 0 0 12 -179 260 97 0c21,0 34,-2 42,-6 7,-4 13,-10 17,-20 3,-7 6,-21 8,-43l11 0z"/>
  <path class="fil1" d="M763 2164c4,-574 238,-1094 615,-1471 216,-215 477,-384 769,-490 -11,17 -20,36 -24,57 -21,-4 -42,-4 -62,-1 -58,8 -142,51 -178,97l-64 82c-142,85 -273,188 -390,305 -364,364 -591,866 -595,1421l-71 0zm3146 -1810c45,26 89,53 132,82l-69 37c-2,-43 -17,-84 -54,-109 -3,-2 -5,-4 -8,-5l-1 -5zm149 94c105,73 204,155 294,245 377,377 611,897 615,1471l-71 0c-4,-555 -230,-1057 -595,-1421 -76,-76 -157,-145 -244,-209l1 -86z"/>
  <path class="fil0" d="M4855 2857c-136,400 -386,741 -708,989 -358,275 -805,436 -1282,436 -482,0 -933,-164 -1293,-445 -317,-247 -563,-585 -697,-980l75 0c132,372 366,690 665,924 348,271 784,430 1250,430 461,0 893,-155 1239,-422 304,-234 543,-555 676,-932l75 0z"/>
  <path class="fil1" d="M2132 3430c24,14 57,23 94,23 79,0 124,-41 124,-100 0,-49 -29,-78 -87,-100 -43,-17 -63,-29 -63,-57 0,-24 20,-45 55,-45 31,0 55,11 68,19l16 -44c-19,-11 -49,-20 -82,-20 -72,0 -115,44 -115,97 0,40 28,73 88,94 45,17 62,33 62,62 0,27 -21,49 -65,49 -30,0 -62,-12 -79,-24l-16 46z"/>
  <path class="fil1" d="M2671 3311c1,-5 2,-14 2,-24 0,-54 -25,-137 -120,-137 -85,0 -136,69 -136,156 0,88 53,147 142,147 47,0 79,-10 97,-18l-9 -38c-20,9 -42,15 -80,15 -53,0 -99,-29 -100,-101l204 0zm-203 -38c4,-36 27,-85 81,-85 59,0 74,52 73,85l-154 0zm270 174l53 0 0 -155c0,-9 1,-17 2,-25 7,-39 34,-67 71,-67 7,0 13,0 18,1l0 -49c-5,-2 -9,-2 -15,-2 -35,0 -67,24 -81,63l-2 0 -2 -57 -46 0c2,27 2,57 2,91l0 200zm242 0l3 -48 2 0c21,38 55,55 97,55 65,0 130,-52 130,-156 1,-88 -50,-148 -122,-148 -47,0 -81,21 -99,53l-2 0 0 -182 -52 0 0 351c0,26 -1,55 -2,75l45 0zm9 -169c0,-8 2,-15 4,-21 10,-41 44,-65 80,-65 56,0 86,50 86,108 0,67 -33,112 -88,112 -38,0 -69,-26 -79,-62 -1,-6 -3,-13 -3,-19l0 -53zm343 169l0 -291 -53 0 0 291 53 0zm-27 -405c-19,0 -33,14 -33,33 0,18 14,32 32,32 21,0 34,-14 34,-32 0,-19 -13,-33 -33,-33zm324 405c-4,-20 -5,-44 -5,-70l0 -108c0,-59 -22,-119 -111,-119 -36,0 -71,10 -95,26l12 34c20,-13 48,-21 75,-21 60,0 66,43 66,67l0 6c-112,-1 -174,38 -174,108 0,42 30,84 89,84 41,0 72,-21 88,-44l2 0 4 37 49 0zm-56 -98c0,6 -2,12 -3,17 -9,25 -33,49 -71,49 -27,0 -49,-17 -49,-51 0,-56 65,-67 123,-65l0 50z"/>
  <path class="fil0" d="M4684 2857c-132,355 -362,656 -654,875 -328,246 -734,389 -1165,389 -440,0 -853,-149 -1184,-403 -283,-218 -506,-514 -635,-861l184 0c121,291 314,539 556,725 301,232 678,367 1079,367 394,0 764,-130 1063,-354 249,-188 449,-440 572,-738l184 0z"/>
  <path class="fil0" d="M924 2164c4,-530 220,-1009 568,-1357 62,-62 127,-119 196,-171 -21,60 -12,132 2,192l5 23 -13 13c-23,21 -46,42 -68,64 -317,317 -514,754 -518,1236l-172 0zm3123 -1524c67,51 131,107 191,167 348,348 564,827 568,1357l-172 0c-4,-482 -201,-919 -518,-1236 -17,-17 -35,-34 -53,-50 0,-13 -2,-26 -5,-38 -10,-42 -31,-75 -61,-99 27,-28 42,-64 50,-101z"/>
  <path class="fil0" d="M413 2525c1,-8 3,-20 3,-36 0,-78 -37,-199 -175,-199 -124,0 -199,100 -199,228 0,128 78,213 208,213 68,0 114,-14 141,-26l-13 -55c-29,12 -62,22 -117,22 -77,0 -144,-43 -145,-147l297 0zm-297 -55c7,-54 41,-125 119,-125 86,0 107,76 106,125l-225 0zm750 -171l-77 0 0 260c0,14 -3,28 -7,39 -14,35 -50,70 -102,70 -70,0 -94,-54 -94,-134l0 -235 -77 0 0 248c0,149 79,185 146,185 75,0 120,-44 140,-78l1 0 5 69 68 0c-3,-34 -3,-72 -3,-116l0 -308zm127 424l76 0 0 -226c0,-13 2,-25 4,-36 10,-58 49,-99 103,-99 11,0 19,1 26,3l0 -73c-7,-2 -13,-2 -21,-2 -52,0 -98,35 -118,92l-3 0 -3 -83 -67 0c2,40 3,82 3,132l0 292zm457 -433c-117,0 -210,83 -210,224 0,134 88,218 203,218 102,0 211,-68 211,-225 0,-129 -82,-217 -204,-217zm-2 57c91,0 127,91 127,163 0,95 -55,165 -128,165 -76,0 -129,-70 -129,-163 0,-81 39,-165 130,-165zm777 -246l0 253 -1 0c-20,-34 -63,-64 -128,-64 -103,0 -191,86 -190,227 0,129 79,215 181,215 69,0 121,-36 144,-83l2 0 4 74 69 0c-3,-29 -4,-72 -4,-110l0 -512 -77 0zm0 444c0,12 -1,23 -3,33 -14,58 -61,92 -113,92 -83,0 -125,-71 -125,-156 0,-94 47,-164 127,-164 57,0 99,40 111,89 2,10 3,23 3,33l0 73zm559 -246l-77 0 0 260c0,14 -2,28 -7,39 -14,35 -49,70 -101,70 -70,0 -95,-54 -95,-134l0 -235 -77 0 0 248c0,149 80,185 147,185 75,0 119,-44 140,-78l1 0 5 69 68 0c-3,-34 -4,-72 -4,-116l0 -308zm308 -9c-118,0 -210,83 -210,224 0,134 88,218 203,218 102,0 211,-68 211,-225 0,-129 -83,-217 -204,-217zm-2 57c91,0 127,91 127,163 0,95 -55,165 -129,165 -75,0 -129,-70 -129,-163 0,-81 40,-165 131,-165zm564 -246l-76 0 0 622 76 0 0 -160 40 -43 146 203 93 0 -186 -250 164 -174 -93 0 -124 146c-13,15 -27,34 -38,48l-2 0 0 -392zm655 622c-5,-29 -7,-65 -7,-102l0 -158c0,-85 -32,-173 -161,-173 -54,0 -104,14 -139,37l17 51c30,-19 71,-32 110,-32 87,0 97,63 97,98l0 9c-164,-1 -255,55 -255,158 0,61 44,121 130,121 60,0 105,-29 129,-63l3 0 6 54 70 0zm-82 -143c0,8 -1,17 -4,25 -12,35 -47,70 -102,70 -40,0 -73,-23 -73,-73 0,-82 95,-97 179,-95l0 73zm199 143l77 0 0 -622 -77 0 0 622zm547 -198c1,-8 3,-20 3,-36 0,-78 -37,-199 -175,-199 -124,0 -199,100 -199,228 0,128 78,213 208,213 68,0 114,-14 141,-26l-13 -55c-29,12 -62,22 -117,22 -77,0 -144,-43 -146,-147l298 0zm-297 -55c6,-54 41,-125 118,-125 87,0 108,76 107,125l-225 0zm395 253l75 0 0 -256c0,-13 2,-26 6,-37 13,-39 48,-77 96,-77 58,0 88,49 88,116l0 254 75 0 0 -262c0,-14 3,-28 6,-38 14,-38 48,-70 91,-70 63,0 92,49 92,130l0 240 76 0 0 -250c0,-147 -84,-183 -140,-183 -40,0 -68,10 -93,29 -18,13 -34,32 -47,55l-2 0c-19,-49 -62,-84 -120,-84 -70,0 -109,37 -133,77l-3 0 -3 -68 -68 0c3,35 4,71 4,115l0 309z"/>
  <path class="fil2" d="M2855 1298l1 0 -1 6c-81,-70 -186,-126 -240,-165 -20,-10 -20,-14 -38,-26l0 1 -69 -49 -1 -3c-30,-20 -66,-51 -92,-76 -211,-202 -156,-214 -205,-277l11 66c9,10 45,98 98,171 39,55 132,161 186,203 -85,5 -181,12 -252,66 -47,36 -71,63 -95,119 -12,30 -19,59 -20,95 32,-70 31,-94 91,-154 27,-26 61,-38 96,-50 247,-79 537,138 541,361 3,187 -38,397 -134,555l-32 46 196 0 0 60c73,-63 254,-90 350,-31 17,-8 31,-17 41,-27 -13,-24 -18,-23 -36,-43 -78,-93 -129,-225 -161,-345 -15,-59 -64,-282 -82,-410 -14,-246 -1,-531 335,-596 171,-34 309,122 315,271 8,-79 -36,-182 -93,-238 -81,-81 -117,-68 -181,-85 -13,-4 -9,-2 -16,-7 38,-18 106,-93 137,-129 28,-32 55,-83 70,-126 17,-51 6,-45 0,-50l-4 21c-31,108 -145,197 -235,251l-299 180c5,-119 -3,-218 -29,-328 -34,-147 -65,-170 -99,-265 -6,-3 -6,-4 -14,-16 -8,-13 -8,-12 -14,-23 0,16 47,134 56,174 16,63 25,133 28,200 -39,-49 -94,-116 -191,-121 -95,-4 -180,51 -211,106 16,-8 4,-1 15,-9 45,-32 90,-79 189,-65 72,11 124,68 151,122 72,146 -56,450 -63,640zm786 61c76,-11 50,12 91,0 62,-19 106,-168 20,-188 -45,-11 -59,11 -83,10 -13,0 -23,-7 -40,-10 -134,-19 -94,203 12,188zm-323 -1130c-11,9 4,4 -11,5 -14,0 -80,-33 -114,15 -35,50 12,158 68,164 43,5 21,-15 61,-3 52,14 64,-2 95,-41 21,-27 34,-92 5,-124 -31,-36 -62,-17 -104,-16zm-899 619c5,33 22,62 41,81 41,42 53,11 86,13 42,3 44,29 89,-13 20,-20 33,-44 39,-78 8,-43 -7,-71 -33,-85 -45,-22 -70,6 -94,6 0,0 -148,-52 -128,76zm-337 881c29,13 41,-3 64,-3 23,0 19,14 60,6 91,-48 96,-182 10,-190 -37,-4 -46,12 -66,13 -10,1 -87,-35 -118,13 -29,46 2,138 50,161zm1748 -1133c33,-24 69,-58 67,-118 -1,-78 -59,-60 -120,-61 -12,24 -56,-27 -108,4 -61,37 -20,156 38,174 32,11 29,1 55,-3 25,-5 30,7 68,4zm-1185 -321c-77,22 -53,116 -10,160 35,36 41,26 85,17 31,-6 48,24 90,-9 36,-29 69,-125 16,-159 -35,-23 -59,-9 -91,0 -28,7 -43,-23 -90,-9zm-598 733c33,-4 14,-13 48,-6 51,11 84,-4 106,-73 27,-86 -28,-119 -106,-99 -42,11 -40,-17 -91,-8 -100,18 -49,198 43,186zm1616 -115c11,132 128,86 236,127 -17,-54 -46,-110 -80,-135 -53,-40 -115,-33 -156,8zm-1740 -350c5,5 2,3 10,11l42 36c17,19 26,34 42,55 40,52 56,56 131,42 -10,-34 -49,-68 -74,-93 -19,-20 -69,-55 -101,-53 45,-2 83,15 113,36 69,48 50,53 79,75 14,-127 -146,-169 -242,-109zm795 1229c-40,-80 -23,-148 -141,-156 6,33 26,73 40,101 24,46 48,64 56,79 -47,-24 -76,-65 -99,-113 -19,-40 -10,-31 -26,-41 -15,144 79,182 208,192 -10,-21 -25,-35 -38,-62zm-776 -1370c71,7 88,34 140,56 49,21 132,-6 113,-60 -13,-38 -66,-74 -124,-66 -37,6 -105,39 -129,70zm1348 1291c-7,-7 -15,-13 -23,-23 -13,-16 -22,-36 -35,-55 -53,-77 -167,-64 -123,38 33,76 144,84 196,64 1,-4 8,-1 -15,-24zm-885 -411c-41,47 -50,116 -54,186 -28,-59 -2,-143 24,-191 -41,14 -86,62 -74,127 8,48 56,101 76,126 9,-39 14,-65 33,-97 28,-47 71,-114 -5,-151zm94 184c-2,31 0,77 15,100 34,-59 40,-48 88,-86 35,-28 53,-65 30,-120 -65,-42 -129,37 -133,106zm-52 -1187c127,5 118,-67 138,-119 10,-23 24,-36 31,-55 -115,23 -224,49 -169,174zm-684 533c29,-30 20,-41 92,-93 38,-28 41,-73 21,-125 -134,-6 -140,103 -113,218zm564 930c42,-5 79,-12 107,-36 35,-30 34,-58 38,-113 -51,-38 -104,-2 -123,36 -59,121 -35,62 -65,115l43 -2zm907 -836c10,54 34,78 91,85 66,7 77,7 134,30 -8,-25 -16,-49 -28,-72 -47,-91 -140,-116 -183,-69 82,19 125,27 166,80 -60,-34 -97,-51 -180,-54zm-1503 15c-89,90 -53,225 21,230 42,3 62,-69 37,-115 -11,-19 -23,-34 -34,-57 -10,-18 -16,-45 -24,-58zm1548 348c-7,62 -15,89 28,122 30,23 54,44 73,83 26,-83 37,-207 -48,-224 -34,0 -33,3 -53,19zm22 227c-57,-55 -33,-24 -88,-96 -20,-26 -44,-49 -86,-44l-29 10c31,69 103,99 130,124 -67,-11 -114,-67 -148,-103 -5,136 167,139 221,109zm-292 -1094c52,57 6,-5 76,89 47,62 107,38 117,26 32,-43 -28,-99 -47,-109 -40,-20 -102,-18 -146,-6zm-640 404c60,-83 -2,-107 -58,-202 -1,-2 -4,-7 -5,-9l-7 -8c-14,39 -40,89 -28,142 9,42 46,77 98,77zm-533 584c-6,-4 -10,-6 -16,-10 -27,-19 -68,-59 -78,-93l18 17c37,36 71,66 120,81 10,-107 -47,-91 -115,-138 -22,-15 -26,-27 -48,-39 0,54 1,113 27,152 16,24 64,63 112,45l-20 -15zm912 -1282c51,20 73,39 104,66 47,41 66,34 122,12 -33,-39 -89,-75 -160,-88 83,-10 123,33 173,62 -12,-110 -169,-109 -239,-52zm557 1507c27,17 23,25 62,33 87,19 149,-65 157,-104 -94,27 -201,-46 -219,71zm-331 -1325l-4 36c23,-35 105,-115 170,-109 -38,-4 -147,95 -151,136 69,11 86,-9 115,-51 40,-58 46,-51 80,-89l-42 -12c-110,-9 -127,18 -168,89zm-778 269c94,-24 170,11 201,-56 11,-22 7,-4 8,-33 -88,-77 -182,-2 -209,89zm934 221c102,-61 48,-180 -27,-222 -4,59 -10,71 -21,124 -12,54 11,87 48,98zm-685 -126c39,-74 178,-111 125,-193 -48,31 -109,81 -130,147 5,-83 82,-129 103,-155 -51,10 -91,31 -111,67 -17,31 -17,68 -5,104l18 30zm-633 543c28,-7 53,-18 83,-23 42,-6 36,10 73,-17 30,-24 66,-97 -30,-97 -71,0 -112,75 -126,137zm839 -116c53,72 22,76 123,90l31 -8c7,-9 8,-19 8,-30 -1,-132 -119,-134 -224,-121 19,23 42,47 62,69zm-692 351c-3,44 16,77 20,111 13,-11 3,-1 15,-16l75 -89c13,-21 13,-44 4,-70 -24,-65 -110,2 -114,64zm928 -639c11,-130 -84,-97 -156,-150 6,86 60,200 156,150zm-678 -458c17,-55 39,-98 80,-125 -7,15 -1,4 -8,15 -3,5 -7,11 -10,16 -20,31 -35,71 -41,108 53,-3 74,-21 87,-68 16,-55 27,-71 43,-112 -127,14 -197,98 -151,166zm514 1143c14,37 64,69 64,155 -13,-24 -22,-55 -37,-81 -12,-19 -33,-54 -54,-63 -32,46 -9,87 15,114 59,65 47,71 69,100 41,-102 55,-185 -57,-225zm1145 -867c-26,43 -44,21 -37,101 116,25 149,-50 151,-160 -29,16 -66,56 -114,59zm-738 -464c43,11 63,7 94,-11 -24,-115 -83,-121 -196,-89 29,17 58,48 79,72 17,19 20,17 23,28zm-265 825c-2,-59 -16,-76 -63,-95 -52,-20 -60,-27 -102,-51 5,63 13,140 80,165 22,8 47,12 66,-2 -56,-23 -94,-49 -118,-97 36,23 63,62 137,80zm384 -293c-1,-63 4,-111 37,-150 -18,70 -19,81 -13,157 91,-32 43,-110 60,-208 -100,36 -154,150 -84,201zm-1389 343c36,-10 -29,-5 -41,-134 15,22 18,44 34,71 16,25 25,36 43,54 56,-81 -26,-124 -62,-204 -34,38 -83,169 26,213zm1821 -388c-153,-59 -205,43 -186,81 19,40 87,12 105,-7 15,-15 18,-25 36,-41 14,-12 32,-21 45,-33zm-1831 852c-61,89 46,169 124,176 -49,-80 5,-166 -104,-189 7,68 19,102 49,151 -50,-36 -48,-73 -69,-138zm1248 -401c14,5 7,0 19,8 14,12 43,16 59,5 25,-6 38,-22 59,-36 16,-10 40,-15 56,-26 -195,-101 -247,13 -193,49zm786 -313c27,34 86,75 86,145 -14,-54 -68,-107 -107,-130 -41,71 32,87 108,181 29,-52 39,-178 -87,-196zm-413 -370c-31,21 -103,75 -79,138 13,32 38,34 66,14 25,-18 38,-36 38,-82l-1 -86 -24 16zm-1485 801c-30,39 -52,36 -92,64 85,26 194,83 249,-11 4,-15 8,-31 5,-41 -1,-7 0,-11 -8,-17 -10,-8 -82,-62 -154,5zm1661 -377c69,8 113,-30 132,-82l-2 -73c-22,8 -25,18 -47,31 -67,38 -131,43 -106,111 47,-18 95,-47 129,-82l8 -7c-21,50 -71,74 -114,102zm-77 -472c5,-63 -4,-102 -24,-153 39,48 39,73 46,146 66,-64 -13,-172 -91,-186 24,87 -15,167 69,193zm-57 732c13,19 15,13 24,35 10,-9 3,4 15,-16 -3,-77 83,-103 12,-184 -11,12 -19,32 -25,50l-19 51c-1,-1 -3,3 -4,5 1,-47 8,-69 23,-108 -100,41 -26,167 -26,167zm-987 -700c-20,-86 -90,-58 -178,-70 20,54 63,109 125,101 33,-4 40,-13 53,-31zm930 1062c46,-25 91,-37 148,-19 -79,0 -90,17 -146,39 21,38 54,45 95,23 85,-46 60,-25 94,-41 -21,-24 -16,-19 -44,-38 -83,-54 -141,-3 -147,36zm401 -379c27,52 53,71 40,153 4,-53 -33,-117 -60,-142 -30,28 -24,66 0,97l50 82c0,-1 2,3 3,5 12,-33 40,-68 36,-117 -4,-45 -31,-70 -69,-78zm-1640 32c35,-3 86,-17 113,-38 -53,-70 -84,-32 -133,-22 -47,15 -67,23 -122,29 67,66 202,146 259,23 -75,27 -130,30 -195,9l78 -1zm1262 135c4,-56 -36,-85 7,-116 -12,-37 -35,-35 -75,-42 -33,-1 -100,-24 -98,30 1,68 105,105 166,128zm-275 -79c-76,26 -135,15 -138,118 106,52 169,-35 178,-132l-40 14zm-579 -983c0,0 -12,-5 12,20 45,47 27,62 81,58 -8,-20 -5,-15 -18,-30 -4,-4 -8,-9 -12,-14 -9,-11 -6,-7 -12,-17 27,16 23,23 46,39 -4,-42 -48,-85 -97,-56zm1053 975c51,5 41,-14 75,-54l22 -29c-56,-11 -97,1 -100,60 21,-17 19,-25 45,-41 -14,26 -28,30 -42,64zm-1130 -431c16,-14 28,-29 46,-41 -15,30 -22,18 -40,60 47,8 50,-23 86,-68 8,-10 5,-4 6,-10 -54,-28 -89,9 -98,59zm764 -537c15,-14 29,-30 47,-42 -10,20 -6,13 -21,29 -13,14 -14,15 -21,33 51,6 50,-25 76,-56 14,-16 17,-12 16,-24 -57,-25 -88,12 -97,60zm360 148c20,13 23,21 36,38 13,19 18,29 47,24 3,-14 -1,-16 -16,-36 -11,-15 -20,-21 -32,-32 35,14 28,17 45,33 9,10 5,6 14,10 -5,-24 -18,-44 -31,-52 -21,-13 -45,-7 -70,-4 1,2 3,10 4,11l3 8zm-1521 1169c1,-1 3,-2 4,-3 24,-25 17,-28 55,-45 -20,20 -43,36 -54,71 48,3 38,-14 94,-77 -4,-2 0,-4 -18,-9 -47,-12 -72,17 -81,63zm-81 -696c-8,-28 -46,-75 -70,-73 36,0 56,33 75,49 -10,-51 -36,-69 -96,-57 1,18 -2,6 12,22 32,39 35,60 79,59zm412 -84c24,13 43,24 60,34 -8,-29 -28,-54 -57,-57l-3 23zm1126 413c26,7 31,11 49,26 10,9 2,3 12,10 -9,-28 -18,-44 -38,-54 -8,-5 -12,-7 -21,-12l-2 30zm-1526 -311c13,-16 20,-20 40,-28 29,-12 26,-1 18,-35 -29,11 -53,29 -58,63zm62 719c-3,-34 -28,-54 -58,-63l-4 20c20,24 9,4 37,20 11,6 21,17 25,23zm585 -1269c28,-35 30,-18 62,-38l-8 -24c-22,12 -49,22 -54,62zm1051 112l-5 25c26,-31 39,-20 60,-40 -8,-24 -6,-13 -11,-19 -22,10 -31,22 -44,34zm-478 -177c-10,-22 -29,-40 -51,-49l-7 24c3,1 5,1 6,3 2,4 6,3 9,4 13,5 2,0 14,6 18,8 9,7 29,12z"/>
 </g>
</svg>
