<svg width="183" height="139" viewBox="0 0 183 139" fill="none" xmlns="http://www.w3.org/2000/svg">
<path d="M45.1166 65.786L45.0192 68.7117H37.3211V68.3541L43.1353 59.9022H40.2444C39.6598 59.9022 39.2375 59.9347 39.0751 60.0322C38.8802 60.0972 38.7178 60.2923 38.5879 60.5198C38.4255 60.8774 38.328 61.3 38.2955 61.8201H37.9058L37.9707 59.187H45.279V59.5771L39.4324 68.029H42.6156C43.2652 68.029 43.7199 67.964 43.9473 67.834C44.1747 67.7039 44.3696 67.5089 44.4995 67.1838C44.5969 66.9563 44.6944 66.5012 44.7593 65.786H45.1166ZM53.7567 65.786L53.6592 68.7117H45.9611V68.3541L51.7753 59.9022H48.8845C48.2673 59.9022 47.8775 59.9347 47.6826 60.0322C47.4878 60.0972 47.3578 60.2923 47.2279 60.5198C47.0655 60.8774 46.9681 61.3 46.9356 61.8201H46.5458L46.5783 59.187H53.8866V59.5771L48.0724 68.029H51.2231C51.9052 68.029 52.3275 67.964 52.5873 67.834C52.8147 67.7039 53.0096 67.5089 53.1395 67.1838C53.237 66.9563 53.3344 66.5012 53.3994 65.786H53.7567Z" fill="#D4D9DE"/>
<path d="M23.4191 69.3617C23.549 50.7025 31.1496 33.7986 43.3951 21.5434C50.4111 14.5543 58.8887 9.06053 68.3733 5.61475C68.016 6.16737 67.7237 6.78501 67.5937 7.46767C66.9116 7.33764 66.2295 7.33764 65.5799 7.43516C63.696 7.69522 60.9675 9.09304 59.7982 10.5884L57.7194 13.254C53.107 16.0171 48.852 19.3654 45.0517 23.1687C33.2284 35.0014 25.8552 51.3201 25.7252 69.3617H23.4191ZM125.605 10.5234C127.067 11.3686 128.496 12.2463 129.893 13.189L127.652 14.3917C127.587 12.9939 127.1 11.6611 125.898 10.8484C125.8 10.7834 125.735 10.7184 125.638 10.6859L125.605 10.5234ZM130.445 13.5791C133.856 15.9521 137.071 18.6177 139.995 21.5434C152.24 33.7986 159.841 50.7025 159.971 69.3617H157.665C157.535 51.3201 150.194 35.0014 138.338 23.1687C135.87 20.6982 133.239 18.4552 130.413 16.3747L130.445 13.5791Z" fill="#D7740A"/>
<path d="M156.333 91.8896C151.915 104.893 143.795 115.978 133.336 124.039C121.708 132.979 107.189 138.213 91.6949 138.213C76.0389 138.213 61.3898 132.881 49.6965 123.747C39.3999 115.718 31.4095 104.73 27.057 91.8896H29.4931C33.7806 103.982 41.3813 114.32 51.0932 121.926C62.3967 130.736 76.5586 135.905 91.6949 135.905C106.669 135.905 120.701 130.866 131.939 122.187C141.814 114.58 149.577 104.145 153.897 91.8896H156.333Z" fill="#D4D9DE"/>
<path d="M67.8861 110.516C68.6656 110.971 69.7375 111.264 70.9393 111.264C73.5053 111.264 74.967 109.931 74.967 108.013C74.967 106.42 74.025 105.478 72.1411 104.762C70.7444 104.21 70.0948 103.82 70.0948 102.91C70.0948 102.129 70.7444 101.447 71.8813 101.447C72.8882 101.447 73.6677 101.804 74.09 102.064L74.6097 100.634C73.9926 100.276 73.0181 99.9839 71.9462 99.9839C69.6076 99.9839 68.2109 101.414 68.2109 103.137C68.2109 104.437 69.1203 105.51 71.0692 106.193C72.5309 106.745 73.0831 107.266 73.0831 108.208C73.0831 109.086 72.401 109.801 70.9718 109.801C69.9973 109.801 68.9579 109.411 68.4058 109.021L67.8861 110.516Z" fill="#D7740A"/>
<path d="M85.3935 106.647C85.426 106.485 85.4585 106.192 85.4585 105.867C85.4585 104.112 84.6464 101.414 81.5607 101.414C78.7998 101.414 77.1432 103.657 77.1432 106.485C77.1432 109.345 78.8648 111.263 81.7556 111.263C83.2822 111.263 84.3216 110.938 84.9063 110.678L84.614 109.443C83.9643 109.736 83.2497 109.931 82.0155 109.931C80.2939 109.931 78.7998 108.988 78.7673 106.647H85.3935ZM78.7998 105.412C78.9297 104.242 79.6768 102.649 81.4308 102.649C83.3472 102.649 83.8344 104.339 83.8019 105.412H78.7998ZM87.5698 111.068H89.2913V106.03C89.2913 105.737 89.3238 105.477 89.3562 105.217C89.5836 103.949 90.4606 103.039 91.6624 103.039C91.8898 103.039 92.0847 103.039 92.2471 103.072V101.479C92.0847 101.414 91.9548 101.414 91.7599 101.414C90.623 101.414 89.5836 102.194 89.1289 103.462H89.0639L88.9989 101.609H87.5048C87.5698 102.486 87.5698 103.462 87.5698 104.567V111.068ZM95.4303 111.068L95.5277 109.508H95.5927C96.2748 110.743 97.3791 111.296 98.7434 111.296C100.855 111.296 102.966 109.606 102.966 106.225C102.998 103.364 101.342 101.414 99.0032 101.414C97.4766 101.414 96.3722 102.096 95.7876 103.137H95.7226V97.2202H94.0336V108.63C94.0336 109.475 94.0011 110.418 93.9686 111.068H95.4303ZM95.7226 105.575C95.7226 105.315 95.7876 105.087 95.8525 104.892C96.1773 103.559 97.2817 102.779 98.451 102.779C100.27 102.779 101.244 104.404 101.244 106.29C101.244 108.468 100.173 109.931 98.3861 109.931C97.1518 109.931 96.1448 109.085 95.82 107.915C95.7876 107.72 95.7226 107.493 95.7226 107.298V105.575ZM106.864 111.068V101.609H105.142V111.068H106.864ZM105.987 97.9029C105.37 97.9029 104.915 98.358 104.915 98.9756C104.915 99.5607 105.37 100.016 105.954 100.016C106.636 100.016 107.059 99.5607 107.059 98.9756C107.059 98.358 106.636 97.9029 105.987 97.9029ZM116.511 111.068C116.381 110.418 116.348 109.638 116.348 108.793V105.282C116.348 103.364 115.634 101.414 112.743 101.414C111.573 101.414 110.437 101.739 109.657 102.259L110.047 103.364C110.696 102.942 111.606 102.681 112.483 102.681C114.432 102.681 114.627 104.079 114.627 104.859V105.054C110.989 105.022 108.975 106.29 108.975 108.565C108.975 109.931 109.949 111.296 111.866 111.296C113.198 111.296 114.204 110.613 114.724 109.866H114.789L114.919 111.068H116.511ZM114.692 107.883C114.692 108.078 114.627 108.273 114.594 108.435C114.302 109.248 113.522 110.028 112.288 110.028C111.411 110.028 110.696 109.475 110.696 108.37C110.696 106.55 112.808 106.192 114.692 106.257V107.883Z" fill="#D7740A"/>
<path d="M150.778 91.8896C146.491 103.43 139.02 113.214 129.536 120.334C118.882 128.33 105.694 132.979 91.6949 132.979C77.4031 132.979 63.9883 128.135 53.237 119.879C44.0447 112.792 36.8014 103.17 32.6113 91.8896H38.5879C42.5181 101.349 48.787 109.411 56.6475 115.458C66.4244 122.999 78.6699 127.388 91.6949 127.388C104.493 127.388 116.511 123.162 126.223 115.88C134.31 109.769 140.807 101.577 144.802 91.8896H150.778Z" fill="#D4D9DE"/>
<path d="M28.6486 69.3617C28.7785 52.1328 35.7945 36.5618 47.098 25.2492C49.1118 23.2337 51.2231 21.3808 53.4643 19.6904C52.7822 21.6409 53.0746 23.9814 53.5293 25.9318L53.6917 26.6795L53.2694 27.1021C52.5224 27.7848 51.7753 28.4674 51.0607 29.1826C40.7641 39.4874 34.3653 53.6932 34.2354 69.3617H28.6486ZM130.088 19.8205C132.264 21.4783 134.343 23.2987 136.292 25.2492C147.595 36.5618 154.611 52.1328 154.741 69.3617H149.154C149.025 53.6932 142.626 39.4874 132.329 29.1826C131.777 28.63 131.192 28.0773 130.608 27.5572C130.608 27.1346 130.543 26.712 130.445 26.3219C130.12 24.9566 129.438 23.8839 128.464 23.1037C129.341 22.1935 129.828 21.0232 130.088 19.8205Z" fill="#D4D9DE"/>
<path d="M12.0506 81.0971C12.0831 80.837 12.148 80.4469 12.148 79.9268C12.148 77.3913 10.9462 73.4579 6.46379 73.4579C2.4361 73.4579 0 76.7086 0 80.8695C0 85.0305 2.53355 87.7936 6.75612 87.7936C8.96486 87.7936 10.459 87.3385 11.336 86.9484L10.9137 85.1605C9.97178 85.5506 8.89989 85.8757 7.11342 85.8757C4.61235 85.8757 2.4361 84.4779 2.40362 81.0971H12.0506ZM2.40362 79.3092C2.63099 77.5538 3.73536 75.2458 6.2689 75.2458C9.0623 75.2458 9.74441 77.7163 9.71193 79.3092H2.40362ZM26.7646 73.7504H24.2636V82.2023C24.2636 82.6574 24.1661 83.1125 24.0362 83.4701C23.5815 84.6079 22.4121 85.7456 20.7231 85.7456C18.4494 85.7456 17.6699 83.9902 17.6699 81.3897V73.7504H15.1688V81.8123C15.1688 86.6559 17.7348 87.8261 19.9111 87.8261C22.3472 87.8261 23.8088 86.3958 24.4585 85.2905H24.4909L24.6534 87.5336H26.8621C26.7646 86.4283 26.7646 85.193 26.7646 83.7627V73.7504ZM30.8898 87.5336H33.3584V80.1869C33.3584 79.7643 33.4233 79.3742 33.4883 79.0166C33.8131 77.1312 35.0799 75.7984 36.8339 75.7984C37.1912 75.7984 37.451 75.8309 37.6784 75.8959V73.5229C37.451 73.4579 37.2561 73.4579 36.9963 73.4579C35.3072 73.4579 33.8131 74.5956 33.1635 76.4485H33.066L32.9686 73.7504H30.7923C30.8573 75.0507 30.8898 76.416 30.8898 78.0414V87.5336ZM45.7338 73.4579C41.9334 73.4579 38.9127 76.156 38.9127 80.7395C38.9127 85.0955 41.771 87.8261 45.5064 87.8261C48.8195 87.8261 52.36 85.6156 52.36 80.512C52.36 76.3185 49.6965 73.4579 45.7338 73.4579ZM45.6688 75.3108C48.6246 75.3108 49.7939 78.269 49.7939 80.6095C49.7939 83.6977 48.0075 85.9732 45.6363 85.9732C43.1677 85.9732 41.4462 83.6977 41.4462 80.6745C41.4462 78.0414 42.713 75.3108 45.6688 75.3108ZM70.9068 67.314V75.5383H70.8743C70.2247 74.4331 68.828 73.4579 66.7167 73.4579C63.3711 73.4579 60.5128 76.2535 60.5453 80.837C60.5453 85.0305 63.1113 87.8261 66.4244 87.8261C68.6656 87.8261 70.3546 86.6559 71.1017 85.128H71.1667L71.2966 87.5336H73.5378C73.4404 86.5908 73.4079 85.193 73.4079 83.9577V67.314H70.9068ZM70.9068 81.7472C70.9068 82.1373 70.8743 82.4949 70.8094 82.82C70.3546 84.7054 68.828 85.8107 67.139 85.8107C64.443 85.8107 63.0788 83.5026 63.0788 80.7395C63.0788 77.6838 64.6054 75.4083 67.2039 75.4083C69.0554 75.4083 70.4196 76.7086 70.8094 78.3015C70.8743 78.6265 70.9068 79.0491 70.9068 79.3742V81.7472ZM89.0639 73.7504H86.5628V82.2023C86.5628 82.6574 86.4979 83.1125 86.3355 83.4701C85.8807 84.6079 84.7439 85.7456 83.0548 85.7456C80.7812 85.7456 79.9691 83.9902 79.9691 81.3897V73.7504H77.4681V81.8123C77.4681 86.6559 80.0666 87.8261 82.2428 87.8261C84.6789 87.8261 86.1081 86.3958 86.7902 85.2905H86.8227L86.9851 87.5336H89.1938C89.0964 86.4283 89.0639 85.193 89.0639 83.7627V73.7504ZM99.0682 73.4579C95.2354 73.4579 92.2471 76.156 92.2471 80.7395C92.2471 85.0955 95.1054 87.8261 98.8408 87.8261C102.154 87.8261 105.694 85.6156 105.694 80.512C105.694 76.3185 102.998 73.4579 99.0682 73.4579ZM99.0032 75.3108C101.959 75.3108 103.128 78.269 103.128 80.6095C103.128 83.6977 101.342 85.9732 98.9382 85.9732C96.5021 85.9732 94.7481 83.6977 94.7481 80.6745C94.7481 78.0414 96.0474 75.3108 99.0032 75.3108ZM117.323 67.314H114.854V87.5336H117.323V82.3324L118.622 80.9346L123.364 87.5336H126.385L120.343 79.4067L125.67 73.7504H122.65L118.622 78.4965C118.2 78.9841 117.745 79.6018 117.388 80.0569H117.323V67.314ZM138.598 87.5336C138.436 86.5908 138.371 85.4206 138.371 84.2178V79.0816C138.371 76.3185 137.331 73.4579 133.141 73.4579C131.387 73.4579 129.763 73.913 128.626 74.6606L129.178 76.3185C130.153 75.7009 131.485 75.2783 132.751 75.2783C135.577 75.2783 135.902 77.3262 135.902 78.464V78.7566C130.575 78.7241 127.619 80.5445 127.619 83.8927C127.619 85.8757 129.048 87.8261 131.842 87.8261C133.791 87.8261 135.252 86.8834 136.032 85.7782H136.129L136.324 87.5336H138.598ZM135.935 82.885C135.935 83.1451 135.902 83.4376 135.805 83.6977C135.415 84.8354 134.278 85.9732 132.491 85.9732C131.192 85.9732 130.12 85.2255 130.12 83.6002C130.12 80.9346 133.206 80.4469 135.935 80.512V82.885ZM142.398 87.5336H144.899V67.314H142.398V87.5336ZM160.166 81.0971C160.198 80.837 160.263 80.4469 160.263 79.9268C160.263 77.3913 159.061 73.4579 154.579 73.4579C150.551 73.4579 148.115 76.7086 148.115 80.8695C148.115 85.0305 150.649 87.7936 154.871 87.7936C157.08 87.7936 158.574 87.3385 159.451 86.9484L159.029 85.1605C158.087 85.5506 157.015 85.8757 155.228 85.8757C152.727 85.8757 150.551 84.4779 150.486 81.0971H160.166ZM150.519 79.3092C150.714 77.5538 151.85 75.2458 154.351 75.2458C157.177 75.2458 157.859 77.7163 157.827 79.3092H150.519ZM163.349 87.5336H165.785V79.2117C165.785 78.7891 165.85 78.3665 165.98 78.0089C166.402 76.7411 167.539 75.5058 169.098 75.5058C170.982 75.5058 171.956 77.0987 171.956 79.2767V87.5336H174.392V79.0166C174.392 78.5615 174.49 78.1064 174.587 77.7813C175.042 76.5461 176.146 75.5058 177.543 75.5058C179.589 75.5058 180.531 77.0987 180.531 79.7318V87.5336H183V79.4067C183 74.6281 180.272 73.4579 178.453 73.4579C177.153 73.4579 176.244 73.7829 175.432 74.4006C174.847 74.8232 174.327 75.4408 173.905 76.1885H173.84C173.223 74.5956 171.826 73.4579 169.943 73.4579C167.669 73.4579 166.402 74.6606 165.622 75.9609H165.525L165.428 73.7504H163.219C163.316 74.8882 163.349 76.0584 163.349 77.4888V87.5336Z" fill="#D4D9DE"/>
<path fill-rule="evenodd" clip-rule="evenodd" d="M91.3701 41.2103H91.4026L91.3701 41.4054C88.7391 39.1298 85.3285 37.3094 83.5746 36.0416C82.9249 35.7166 82.9249 35.5865 82.3403 35.1965V35.229L80.0991 33.6361L80.0666 33.5386C79.0921 32.8884 77.9228 31.8807 77.0783 31.068C70.2247 24.5015 72.0112 24.1114 70.4196 22.0635L70.7769 24.209C71.0692 24.534 72.2386 27.3947 73.9601 29.7677C75.2268 31.5556 78.2476 35.0014 80.0016 36.3667C77.2407 36.5293 74.1225 36.7568 71.8163 38.5122C70.2897 39.6825 69.5101 40.5602 68.7306 42.3806C68.3408 43.3558 68.1134 44.2985 68.0809 45.4688C69.1203 43.1933 69.0879 42.4131 71.0367 40.4626C71.9137 39.6175 73.0181 39.2274 74.155 38.8373C82.1779 36.2692 91.5975 43.3233 91.7274 50.5724C91.8248 56.6513 90.4931 63.4779 87.3749 68.614L86.3355 70.1094H92.7018V72.0598C95.073 70.0119 100.952 69.1342 104.07 71.0521C104.622 70.792 105.077 70.4995 105.402 70.1744C104.98 69.3942 104.817 69.4267 104.233 68.7766C101.699 65.7534 100.043 61.4624 99.0032 57.5615C98.516 55.6436 96.9244 48.3944 96.3397 44.2335C95.885 36.2367 96.3072 26.9721 107.221 24.8591C112.775 23.7539 117.258 28.825 117.453 33.6686C117.712 31.1005 116.283 27.7523 114.432 25.9318C111.801 23.2988 110.632 23.7213 108.553 23.1687C108.13 23.0387 108.26 23.1037 108.033 22.9412C109.267 22.356 111.476 19.918 112.483 18.7477C113.392 17.7075 114.269 16.0496 114.757 14.6518C115.309 12.9939 114.952 13.189 114.757 13.0264L114.627 13.7091C113.62 17.2199 109.917 20.113 106.994 21.8684L97.2817 27.7198C97.4441 23.8514 97.1842 20.6331 96.3397 17.0573C95.2354 12.2787 94.2284 11.5311 93.1241 8.44288C92.9292 8.34536 92.9292 8.31285 92.6693 7.92276C92.4095 7.50017 92.4095 7.53267 92.2146 7.17509C92.2146 7.69521 93.7412 11.5311 94.0336 12.8314C94.5533 14.8793 94.8456 17.1549 94.943 19.3329C93.6763 17.74 91.8898 15.562 88.7391 15.3995C85.6534 15.2694 82.8924 17.0573 81.8855 18.8452C82.4052 18.5852 82.0154 18.8127 82.3727 18.5527C83.8344 17.5124 85.2961 15.9846 88.5117 16.4397C90.8504 16.7973 92.5394 18.6502 93.4164 20.4056C95.7551 25.1517 91.5975 35.0339 91.3701 41.2103ZM116.9 43.1933C119.369 42.8357 118.525 43.5834 119.856 43.1933C121.87 42.5756 123.299 37.732 120.506 37.0819C119.044 36.7243 118.589 37.4395 117.81 37.407C117.388 37.407 117.063 37.1794 116.511 37.0819C112.158 36.4642 113.457 43.6809 116.9 43.1933ZM106.409 6.45993C106.052 6.7525 106.539 6.58996 106.052 6.62247C105.597 6.62247 103.453 5.54972 102.349 7.11008C101.212 8.73545 102.739 12.2462 104.558 12.4413C105.954 12.6038 105.24 11.9537 106.539 12.3438C108.228 12.7989 108.618 12.2788 109.625 11.011C110.307 10.1333 110.729 8.02028 109.787 6.98005C108.78 5.80978 107.773 6.42742 106.409 6.45993ZM77.2082 26.582C77.3706 27.6547 77.9228 28.5975 78.5399 29.2151C79.8717 30.5804 80.2615 29.5727 81.3333 29.6377C82.6976 29.7352 82.7625 30.5804 84.2242 29.2151C84.8738 28.5649 85.2961 27.7848 85.491 26.6795C85.7508 25.2817 85.2636 24.3715 84.4191 23.9164C82.9574 23.2012 82.1454 24.1114 81.3658 24.1114C81.3658 24.1114 76.5586 22.4211 77.2082 26.582ZM66.262 55.221C67.2039 55.6436 67.5937 55.1235 68.3408 55.1235C69.0879 55.1235 68.9579 55.5786 70.2897 55.3185C73.2455 53.7582 73.4079 49.4022 70.6145 49.1421C69.4127 49.0121 69.1203 49.5322 68.4707 49.5647C68.1459 49.5972 65.6448 48.427 64.6379 49.9873C63.696 51.4826 64.7029 54.4733 66.262 55.221ZM123.039 18.3901C124.111 17.61 125.281 16.5047 125.216 14.5543C125.183 12.0187 123.299 12.6038 121.318 12.5713C120.928 13.3515 119.499 11.6936 117.81 12.7013C115.829 13.9041 117.16 17.7725 119.044 18.3576C120.084 18.7152 119.986 18.3901 120.831 18.2601C121.643 18.0976 121.805 18.4877 123.039 18.3901ZM84.549 7.95527C82.0479 8.67043 82.8275 11.7261 84.2242 13.1565C85.361 14.3267 85.5559 14.0016 86.9851 13.7091C87.992 13.514 88.5442 14.4893 89.9084 13.4165C91.0777 12.4738 92.1496 9.35309 90.4281 8.24784C89.2913 7.50017 88.5117 7.95527 87.4723 8.24784C86.5628 8.47539 86.0756 7.50017 84.549 7.95527ZM65.1251 31.7832C66.197 31.6531 65.5799 31.3606 66.6842 31.5881C68.3408 31.9457 69.4127 31.4581 70.1273 29.2151C71.0043 26.4195 69.2178 25.3467 66.6842 25.9969C65.32 26.3544 65.385 25.4442 63.7284 25.7368C60.4803 26.3219 62.1369 32.1733 65.1251 31.7832ZM117.615 28.0448C117.972 32.3358 121.773 30.8405 125.281 32.1733C124.728 30.4179 123.786 28.5975 122.682 27.7848C120.961 26.4845 118.947 26.712 117.615 28.0448ZM61.0975 16.6672C61.2599 16.8298 61.1624 16.7648 61.4223 17.0248L62.7865 18.1951C63.3387 18.8127 63.631 19.3003 64.1507 19.983C65.45 21.6734 65.9697 21.8034 68.4058 21.3483C68.0809 20.2431 66.8142 19.1378 66.0021 18.3251C65.385 17.675 63.7609 16.5372 62.7215 16.6022C64.1832 16.5372 65.4175 17.0898 66.3919 17.7725C68.6331 19.3329 68.016 19.4954 68.9579 20.2106C69.4127 16.0821 64.2157 14.7168 61.0975 16.6672ZM86.9201 56.6188C85.6209 54.0182 86.1731 51.8077 82.3403 51.5477C82.5352 52.6204 83.1848 53.9207 83.6395 54.8309C84.4191 56.3262 85.1986 56.9114 85.4585 57.399C83.9319 56.6188 82.9899 55.286 82.2428 53.7257C81.6257 52.4254 81.918 52.7179 81.3983 52.3929C80.9111 57.0739 83.9643 58.3092 88.1544 58.6343C87.8296 57.9516 87.3424 57.4965 86.9201 56.6188ZM61.7146 12.0837C64.0208 12.3113 64.573 13.189 66.262 13.9041C67.8536 14.5868 70.5495 13.7091 69.9324 11.9537C69.5101 10.7184 67.7886 9.54813 65.9047 9.80819C64.7029 10.0032 62.4942 11.076 61.7146 12.0837ZM105.499 54.0507C105.272 53.8232 105.012 53.6281 104.752 53.3031C104.33 52.7829 104.038 52.1328 103.616 51.5152C101.894 49.0121 98.1912 49.4347 99.6203 52.7504C100.692 55.221 104.298 55.4811 105.987 54.8309C106.019 54.7009 106.247 54.7984 105.499 54.0507ZM76.7535 40.6902C75.4217 42.218 75.1294 44.4611 74.9995 46.7366C74.09 44.8186 74.9345 42.088 75.779 40.5277C74.4473 40.9828 72.9856 42.5431 73.3754 44.6561C73.6353 46.2165 75.1944 47.9393 75.844 48.752C76.1363 47.4842 76.2987 46.639 76.9159 45.5988C77.8254 44.071 79.2221 41.893 76.7535 40.6902ZM79.8067 46.6716C79.7418 47.6793 79.8067 49.1746 80.2939 49.9223C81.3983 48.0044 81.5932 48.3619 83.1523 47.1267C84.2891 46.2165 84.8738 45.0137 84.1267 43.2258C82.0154 41.8605 79.9366 44.4285 79.8067 46.6716ZM78.1177 8.0853C82.2428 8.24784 81.9505 5.9073 82.6001 4.21692C82.9249 3.46925 83.3797 3.04665 83.607 2.42901C79.8717 3.17668 76.3312 4.02188 78.1177 8.0853ZM55.9004 25.4117C56.8424 24.4365 56.5501 24.0789 58.8887 22.3885C60.123 21.4783 60.2205 20.0155 59.5708 18.3251C55.2183 18.1301 55.0234 21.6734 55.9004 25.4117ZM74.2199 55.6436C75.5841 55.4811 76.7859 55.2535 77.6954 54.4733C78.8323 53.4981 78.7998 52.5879 78.9297 50.8C77.2732 49.5647 75.5517 50.735 74.9345 51.9703C73.0181 55.9037 73.7977 53.9857 72.8232 55.7086L74.2199 55.6436ZM103.681 28.4674C104.005 30.2228 104.785 31.003 106.636 31.2306C108.78 31.4581 109.137 31.4581 110.989 32.2058C110.729 31.3931 110.469 30.6129 110.079 29.8652C108.553 26.9071 105.532 26.0944 104.135 27.6222C106.799 28.2399 108.195 28.4999 109.527 30.2228C107.578 29.1176 106.376 28.5649 103.681 28.4674ZM54.861 28.955C51.9702 31.8807 53.1395 36.2692 55.5431 36.4317C56.9074 36.5293 57.557 34.1887 56.7449 32.6934C56.3877 32.0757 55.9979 31.5881 55.6406 30.8405C55.3158 30.2553 55.1209 29.3776 54.861 28.955ZM105.142 40.2676C104.915 42.2831 104.655 43.1608 106.052 44.2335C107.026 44.9812 107.806 45.6638 108.423 46.9316C109.267 44.2335 109.625 40.2026 106.864 39.65C105.759 39.65 105.792 39.7475 105.142 40.2676ZM105.857 47.6468C104.005 45.8589 104.785 46.8666 102.998 44.5261C102.349 43.6809 101.569 42.9332 100.205 43.0957L99.2631 43.4208C100.27 45.6638 102.609 46.639 103.486 47.4517C101.309 47.0942 99.7828 45.2737 98.6784 44.1035C98.516 48.5245 104.103 48.622 105.857 47.6468ZM96.3722 12.0837C98.0612 13.9366 96.5671 11.9212 98.8408 14.9769C100.367 16.9923 102.316 16.2121 102.641 15.8221C103.681 14.4242 101.732 12.6038 101.114 12.2788C99.8152 11.6286 97.8014 11.6936 96.3722 12.0837ZM75.5841 25.2167C77.533 22.5186 75.5192 21.7384 73.7002 18.6502C73.6677 18.5852 73.5703 18.4226 73.5378 18.3576L73.3104 18.0976C72.8557 19.3654 72.0112 20.9907 72.401 22.7136C72.6933 24.0789 73.8951 25.2167 75.5841 25.2167ZM58.2716 44.201C58.0767 44.071 57.9468 44.006 57.7519 43.8759C56.8749 43.2583 55.5431 41.958 55.2183 40.8527L55.803 41.4054C57.0048 42.5756 58.1092 43.5508 59.7008 44.0385C60.0256 40.5602 58.1741 41.0803 55.9654 39.5524C55.2508 39.0648 55.1209 38.6747 54.4063 38.2847C54.4063 40.0401 54.4388 41.958 55.2833 43.2258C55.803 44.006 57.3621 45.2737 58.9212 44.6886L58.2716 44.201ZM87.8946 2.52654C89.5511 3.17668 90.2657 3.79432 91.2726 4.67202C92.7993 6.00483 93.4164 5.77727 95.2354 5.06211C94.1635 3.79432 92.3445 2.62406 90.0383 2.20146C92.7343 1.87639 94.0336 3.27421 95.6576 4.21692C95.2678 0.641109 90.1683 0.673616 87.8946 2.52654ZM105.987 51.5152C106.864 52.0678 106.734 52.3278 108.001 52.5879C110.826 53.2055 112.84 50.4749 113.1 49.2071C110.047 50.0848 106.571 47.7118 105.987 51.5152ZM95.2354 8.44288L95.1054 9.61315C95.8525 8.47539 98.516 5.8748 100.627 6.06984C99.393 5.93981 95.8525 9.15804 95.7226 10.4908C97.9638 10.8484 98.516 10.1983 99.4579 8.83297C100.757 6.94754 100.952 7.17509 102.056 5.93981L100.692 5.54972C97.1193 5.25716 96.5671 6.13486 95.2354 8.44288ZM69.9649 17.1874C73.0181 16.4072 75.4867 17.5449 76.4936 15.367C76.8509 14.6518 76.721 15.2369 76.7535 14.2942C73.8951 11.7911 70.8419 14.2292 69.9649 17.1874ZM100.302 24.3715C103.616 22.3885 101.862 18.5202 99.4255 17.1549C99.2955 19.0728 99.1006 19.4629 98.7434 21.1858C98.3536 22.9412 99.1006 24.0139 100.302 24.3715ZM78.0527 20.2756C79.3195 17.87 83.8344 16.6672 82.1129 14.0016C80.5538 15.0094 78.5724 16.6347 77.8903 18.7802C78.0527 16.0821 80.5538 14.5868 81.2359 13.7416C79.5793 14.0667 78.2801 14.7493 77.6305 15.9196C77.0783 16.9273 77.0783 18.1301 77.4681 19.3003L78.0527 20.2756ZM57.492 37.9271C58.4015 37.6995 59.2135 37.3419 60.188 37.1794C61.5522 36.9844 61.3573 37.5045 62.5591 36.6268C63.5336 35.8466 64.7029 33.4736 61.5847 33.4736C59.2785 33.4736 57.9468 35.9116 57.492 37.9271ZM84.7439 34.1562C86.4654 36.4967 85.4585 36.6268 88.7391 37.0819L89.746 36.8218C89.9734 36.5293 90.0059 36.2042 90.0059 35.8466C89.9734 31.5556 86.1406 31.4906 82.73 31.9132C83.3472 32.6609 84.0943 33.4411 84.7439 34.1562ZM62.2668 45.5663C62.1693 46.9966 62.7865 48.0694 62.9164 49.1746C63.3387 48.817 63.0139 49.1421 63.4036 48.6545L65.8397 45.7613C66.262 45.0787 66.262 44.331 65.9697 43.4858C65.1901 41.3729 62.3967 43.5508 62.2668 45.5663ZM92.4095 24.7941C92.7668 20.5681 89.681 21.6409 87.3424 19.918C87.5373 22.7136 89.2913 26.4195 92.4095 24.7941ZM70.3871 9.90571C70.9393 8.11781 71.6539 6.71999 72.9856 5.84229C72.7583 6.3299 72.9531 5.97232 72.7258 6.3299C72.6283 6.49244 72.4984 6.68748 72.401 6.85002C71.7513 7.85775 71.2641 9.15804 71.0692 10.3608C72.7907 10.2633 73.4729 9.67816 73.8951 8.15031C74.4148 6.36241 74.7721 5.84229 75.2918 4.50949C71.1667 4.96459 68.893 7.69521 70.3871 9.90571ZM87.0825 47.0616C87.5373 48.2644 89.1614 49.3047 89.1614 52.1003C88.7391 51.3201 88.4468 50.3124 87.9595 49.4672C87.5698 48.8496 86.8877 47.7118 86.2055 47.4192C85.1661 48.9146 85.9132 50.2474 86.6928 51.1251C88.6092 53.238 88.2194 53.4331 88.934 54.3758C90.2657 51.0601 90.7205 48.3619 87.0825 47.0616ZM124.274 18.8777C123.429 20.2756 122.845 19.5604 123.072 22.161C126.84 22.9737 127.912 20.5356 127.977 16.9598C127.035 17.4799 125.833 18.7802 124.274 18.8777ZM100.302 3.79432C101.699 4.15191 102.349 4.02188 103.356 3.43674C102.576 -0.301605 100.66 -0.49665 96.9894 0.543586C97.9313 1.09621 98.8733 2.10394 99.5554 2.88412C100.108 3.50176 100.205 3.43674 100.302 3.79432ZM91.6949 30.6129C91.6299 28.695 91.1752 28.1424 89.6486 27.5247C87.9595 26.8746 87.6997 26.647 86.3355 25.8668C86.4979 27.9148 86.7577 30.4179 88.934 31.2306C89.6486 31.4906 90.4606 31.6206 91.0777 31.1655C89.2588 30.4179 88.0245 29.5727 87.2449 28.0123C88.4143 28.76 89.2913 30.0278 91.6949 30.6129ZM104.168 21.0882C104.135 19.0403 104.298 17.4799 105.37 16.2121C104.785 18.4877 104.752 18.8452 104.947 21.3158C107.903 20.2756 106.344 17.74 106.896 14.5543C103.648 15.7245 101.894 19.4304 104.168 21.0882ZM59.0511 32.2383C60.2205 31.9132 58.1092 32.0757 57.7194 27.8823C58.2066 28.5975 58.3041 29.3126 58.8238 30.1903C59.3435 31.003 59.6358 31.3606 60.2205 31.9457C62.0394 29.3126 59.3759 27.9148 58.2066 25.3142C57.1022 26.5495 55.5107 30.808 59.0511 32.2383ZM118.2 19.6254C113.23 17.7075 111.541 21.0232 112.158 22.2585C112.775 23.5588 114.984 22.6486 115.569 22.031C116.056 21.5434 116.153 21.2183 116.738 20.6982C117.193 20.3081 117.777 20.0155 118.2 19.6254ZM58.7263 47.3217C56.7449 50.2149 60.2205 52.8155 62.754 53.043C61.1624 50.4424 62.9164 47.6468 59.3759 46.8991C59.6033 49.1096 59.9931 50.2149 60.9675 51.8077C59.3435 50.6375 59.4084 49.4347 58.7263 47.3217ZM99.2631 34.2862C99.7178 34.4488 99.4904 34.2862 99.8802 34.5463C100.335 34.9364 101.277 35.0664 101.797 34.7088C102.609 34.5138 103.031 33.9937 103.713 33.5386C104.233 33.2135 105.012 33.051 105.532 32.6934C99.1981 29.4101 97.5091 33.116 99.2631 34.2862ZM124.793 24.1114C125.67 25.2167 127.587 26.5495 127.587 28.825C127.132 27.0696 125.378 25.3467 124.111 24.599C122.78 26.9071 125.151 27.4272 127.619 30.4829C128.561 28.7925 128.886 24.6966 124.793 24.1114ZM111.379 12.0837C110.372 12.7664 108.033 14.5218 108.813 16.5697C109.235 17.61 110.047 17.675 110.956 17.0248C111.768 16.4397 112.191 15.8546 112.191 14.3592L112.158 11.5636L111.379 12.0837ZM63.1438 38.1221C62.1693 39.3899 61.4547 39.2924 60.1555 40.2026C62.9164 41.0478 66.4569 42.9007 68.2434 39.845C68.3733 39.3574 68.5032 38.8373 68.4058 38.5122C68.3733 38.2847 68.4058 38.1546 68.1459 37.9596C67.8211 37.6995 65.4824 35.9441 63.1438 38.1221ZM117.095 25.8668C119.337 26.1269 120.766 24.8916 121.383 23.2012L121.318 20.8282C120.603 21.0882 120.506 21.4133 119.791 21.8359C117.615 23.0712 115.536 23.2337 116.348 25.4442C117.875 24.8591 119.434 23.9164 120.538 22.7786L120.798 22.5511C120.116 24.1765 118.492 24.9566 117.095 25.8668ZM114.594 10.5234C114.757 8.47539 114.464 7.2076 113.815 5.54972C115.081 7.11008 115.081 7.92276 115.309 10.2958C117.453 8.21533 114.887 4.70453 112.353 4.24943C113.133 7.07757 111.866 9.67816 114.594 10.5234ZM112.743 34.3188C113.165 34.9364 113.23 34.7413 113.522 35.4565C113.847 35.1639 113.62 35.5865 114.01 34.9364C113.912 32.4333 116.706 31.5881 114.399 28.955C114.042 29.3451 113.782 29.9953 113.587 30.5804L112.97 32.2383C112.938 32.2058 112.873 32.3358 112.84 32.4008C112.873 30.873 113.1 30.1578 113.587 28.89C110.339 30.2228 112.743 34.3188 112.743 34.3188ZM80.6837 11.5636C80.0341 8.76795 77.7604 9.67816 74.902 9.28807C75.5517 11.0435 76.9484 12.8314 78.9622 12.5713C80.0341 12.4413 80.2615 12.1487 80.6837 11.5636ZM110.891 46.0864C112.386 45.2737 113.847 44.8837 115.699 45.4688C113.133 45.4688 112.775 46.0214 110.956 46.7366C111.638 47.9719 112.71 48.1994 114.042 47.4842C116.803 45.9889 115.991 46.6716 117.095 46.1514C116.413 45.3713 116.576 45.5338 115.666 44.9162C112.97 43.1608 111.086 44.8186 110.891 46.0864ZM123.916 33.7661C124.793 35.4565 125.638 36.0742 125.216 38.7398C125.346 37.0169 124.144 34.9364 123.267 34.1237C122.292 35.0339 122.487 36.2692 123.267 37.2769L124.891 39.9425C124.891 39.91 124.956 40.0401 124.988 40.1051C125.378 39.0323 126.288 37.8946 126.158 36.3017C126.028 34.8389 125.151 34.0262 123.916 33.7661ZM70.647 34.8064C71.7838 34.7088 73.4404 34.2537 74.3174 33.5711C72.5959 31.2956 71.5889 32.5308 69.9973 32.8559C68.4707 33.3435 67.8211 33.6036 66.0346 33.7986C68.2109 35.9441 72.5959 38.5447 74.4473 34.5463C72.0112 35.424 70.2247 35.5215 68.1134 34.8389L70.647 34.8064ZM111.638 39.1949C111.768 37.3744 110.469 36.4317 111.866 35.424C111.476 34.2212 110.729 34.2862 109.43 34.0587C108.358 34.0262 106.182 33.2785 106.247 35.0339C106.279 37.2444 109.657 38.4472 111.638 39.1949ZM102.706 36.6268C100.237 37.472 98.3211 37.1144 98.2236 40.4626C101.667 42.153 103.713 39.3249 104.005 36.1717L102.706 36.6268ZM83.8994 4.67202C83.8994 4.67202 83.5096 4.50949 84.2891 5.32217C85.7508 6.85002 85.1661 7.33763 86.9201 7.2076C86.6603 6.55745 86.7577 6.71999 86.3355 6.23238C86.2055 6.10235 86.0756 5.93981 85.9457 5.77727C85.6534 5.41969 85.7508 5.54972 85.5559 5.22465C86.4329 5.74477 86.303 5.97232 87.0501 6.49244C86.9201 5.12713 85.491 3.72931 83.8994 4.67202ZM118.102 36.3667C119.759 36.5293 119.434 35.9116 120.538 34.6113L121.253 33.6686C119.434 33.311 118.102 33.7011 118.005 35.619C118.687 35.0664 118.622 34.8064 119.466 34.2862C119.012 35.1314 118.557 35.2615 118.102 36.3667ZM81.3983 22.356C81.918 21.9009 82.3078 21.4133 82.8924 21.0232C82.4052 21.9985 82.1779 21.6084 81.5932 22.9737C83.1198 23.2337 83.2173 22.226 84.3866 20.7632C84.6464 20.4381 84.549 20.6331 84.5815 20.4381C82.8275 19.5279 81.6906 20.7307 81.3983 22.356ZM106.214 4.89958C106.701 4.44447 107.156 3.92435 107.741 3.53427C107.416 4.18441 107.546 3.95686 107.059 4.47698C106.636 4.93208 106.604 4.96459 106.376 5.54972C108.033 5.74477 108.001 4.73704 108.845 3.72931C109.3 3.20919 109.397 3.33922 109.365 2.94913C107.513 2.13645 106.506 3.33922 106.214 4.89958ZM117.907 9.71067C118.557 10.1333 118.654 10.3933 119.077 10.9459C119.499 11.5636 119.661 11.8887 120.603 11.7261C120.701 11.271 120.571 11.206 120.084 10.5559C119.726 10.0682 119.434 9.8732 119.044 9.51562C120.181 9.97073 119.954 10.0682 120.506 10.5884C120.798 10.9134 120.668 10.7834 120.961 10.9134C120.798 10.1333 120.376 9.48312 119.954 9.22306C119.272 8.80046 118.492 8.99551 117.68 9.09303C117.712 9.15804 117.777 9.4181 117.81 9.45061L117.907 9.71067ZM68.5032 47.7118C68.5357 47.6793 68.6006 47.6468 68.6331 47.6143C69.4127 46.8016 69.1853 46.7041 70.4196 46.1514C69.77 46.8016 69.0229 47.3217 68.6656 48.4595C70.2247 48.557 69.8999 48.0044 71.7189 45.9564C71.5889 45.8914 71.7189 45.8264 71.1342 45.6638C69.6076 45.2737 68.7955 46.2165 68.5032 47.7118ZM65.8722 25.0867C65.6124 24.1765 64.3781 22.6486 63.5985 22.7136C64.7678 22.7136 65.4175 23.7864 66.0346 24.3065C65.7098 22.6486 64.8653 22.0635 62.9164 22.4536C62.9489 23.0387 62.8514 22.6486 63.3062 23.1687C64.3456 24.4365 64.443 25.1192 65.8722 25.0867ZM79.2545 22.356C80.0341 22.7786 80.6512 23.1362 81.2034 23.4613C80.9436 22.5186 80.2939 21.7059 79.352 21.6084L79.2545 22.356ZM115.829 35.7816C116.673 36.0091 116.835 36.1392 117.42 36.6268C117.745 36.9193 117.485 36.7243 117.81 36.9519C117.518 36.0416 117.225 35.5215 116.576 35.1965C116.316 35.0339 116.186 34.9689 115.894 34.8064L115.829 35.7816ZM66.262 25.6718C66.6842 25.1517 66.9116 25.0216 67.5612 24.7616C68.5032 24.3715 68.4058 24.7291 68.1459 23.6238C67.2039 23.9814 66.4244 24.5665 66.262 25.6718ZM68.2758 49.0446C68.1784 47.9393 67.3664 47.2892 66.3919 46.9966L66.262 47.6468C66.9116 48.427 66.5543 47.7768 67.4638 48.2969C67.8211 48.492 68.1459 48.8496 68.2758 49.0446ZM87.2774 7.79273C88.1869 6.65497 88.2519 7.2076 89.2913 6.55745L89.0314 5.77727C88.3168 6.16736 87.4398 6.49244 87.2774 7.79273ZM121.415 11.4336L121.253 12.2462C122.097 11.2385 122.52 11.5961 123.202 10.9459C122.942 10.1658 123.007 10.5234 122.845 10.3283C122.13 10.6534 121.838 11.0435 121.415 11.4336ZM105.889 5.67975C105.564 4.96459 104.947 4.37946 104.233 4.08689L104.005 4.86707C104.103 4.89958 104.168 4.89958 104.2 4.96459C104.265 5.09462 104.395 5.06211 104.493 5.09462C104.915 5.25716 104.558 5.09462 104.947 5.28966C105.532 5.54972 105.24 5.51722 105.889 5.67975Z" fill="#D4D9DE"/>
</svg>
